<?xml version="1.0" standalone="no"?>
<!DOCTYPE svg PUBLIC "-//W3C//DTD SVG 1.1//EN" "http://www.w3.org/Graphics/SVG/1.1/DTD/svg11.dtd" >
<svg xmlns="http://www.w3.org/2000/svg">
<metadata>Generated by IcoMoon</metadata>
<defs>
<font id="custom-icons" horiz-adv-x="1024">
<font-face units-per-em="1024" ascent="960" descent="-64" />
<missing-glyph horiz-adv-x="1024" />
<glyph unicode="&#x20;" horiz-adv-x="512" d="" />
<glyph unicode="&#xe900;" glyph-name="blogger" d="M921.6 960h-819.2c-56.32 0-102.4-46.080-102.4-102.4v-819.2c0-56.32 46.080-102.4 102.4-102.4h819.2c56.32 0 102.4 46.080 102.4 102.4v819.2c0 56.32-46.080 102.4-102.4 102.4zM716.8 601.6v-51.2c0-30.72 20.48-51.2 51.2-51.2s51.2-20.48 51.2-51.2v-153.6c0-87.040-66.56-153.6-153.6-153.6h-307.2c-87.040 0-153.6 66.56-153.6 153.6v358.4c0 87.040 66.56 153.6 153.6 153.6h204.8c87.040 0 153.6-66.56 153.6-153.6v-51.2zM409.6 550.4h133.12c30.72 0 51.2 20.48 51.2 51.2s-20.48 51.2-51.2 51.2h-133.12c-30.72 0-51.2-20.48-51.2-51.2s20.48-51.2 51.2-51.2zM614.4 396.8h-204.8c-30.72 0-51.2-20.48-51.2-51.2s20.48-51.2 51.2-51.2h204.8c30.72 0 51.2 20.48 51.2 51.2s-20.48 51.2-51.2 51.2z" />
<glyph unicode="&#xe901;" glyph-name="dermatology_1" d="M615.696 208.204l3.244 100.46c-32.404-16.204-68.050-25.923-106.94-25.923s-74.532 9.724-106.94 25.923l3.244-100.46c9.724-9.724 45.372-35.646 103.696-35.646 58.332-3.244 93.98 22.685 103.696 35.646zM512 742.885c-74.532 0-162.028-35.646-187.949-48.609v-194.43c0-103.696 84.253-187.949 187.949-187.949s187.949 84.253 187.949 187.949v194.43c-29.165 12.962-116.657 48.609-187.949 48.609zM589.773 425.315c-9.724 0-16.204 6.481-16.204 16.204s6.481 16.204 16.204 16.204c9.724 0 16.204-6.481 16.204-16.204s-6.481-16.204-16.204-16.204zM628.657 399.391c-9.724 0-16.204 6.481-16.204 16.204s6.481 16.204 16.204 16.204c9.724 0 16.204-6.481 16.204-16.204s-6.481-16.204-16.204-16.204zM628.657 448c-9.724 0-16.204 6.481-16.204 16.204s6.481 16.204 16.204 16.204c9.724 0 16.204-6.481 16.204-16.204s-6.481-16.204-16.204-16.204zM742.076 778.531c6.481 97.215-100.46 132.861-100.46 132.861 35.646 9.724 6.481 16.204-6.481 19.442s-61.57 3.244-71.292 3.244c-9.724 0 6.481 22.685 6.481 22.685-32.404 3.244-74.532-22.685-74.532-22.685s-35.646 16.204-64.812 16.204c-29.165 0-51.852-6.481-38.892-9.724 12.962 0 25.923-22.685 25.923-22.685s-22.685-6.481-38.892-9.724c-16.204-3.244-64.812-25.923-81.012-29.165s-25.923-3.244-25.923-9.724c-3.244-6.481 19.442-22.685 19.442-22.685-29.165-42.127-16.204-84.253-16.204-84.253s-19.442-25.923-19.442-90.734c0-61.57 29.165-119.9 29.165-119.9 3.244 0 3.244-3.244 6.481-3.244v162.028l9.724 3.244c3.244 3.244 113.42 55.089 210.635 55.089 90.734 0 207.393-51.852 210.635-55.089l9.724-3.244v-158.785c6.481 3.244 9.724 6.481 9.724 6.481s25.923 51.852 25.923 132.861c0 81.012-25.923 87.5-25.923 87.5zM819.845 62.382c-22.685 29.165-84.253 103.696-171.747 145.823v-12.962l-3.244-6.481c-3.244 0-45.372-51.852-132.861-51.852s-129.619 51.852-132.861 51.852l-3.244 3.244v12.962c-87.5-45.372-149.068-116.657-171.747-145.823-6.481-6.481-3.244-16.204 3.244-19.442 35.646-29.165 123.138-103.696 304.607-103.696 184.708 0 262.481 71.292 304.607 103.696 6.481 6.481 9.724 12.962 3.244 22.685z" />
<glyph unicode="&#xe902;" glyph-name="dermatology_2" d="M180.237 422.48c38.28 0 63.801-12.76 89.321-28.71 22.33-12.76 44.66-25.52 76.561-25.52 19.14 0 35.090 3.19 47.85 9.57 9.57 66.991 31.9 133.981 54.231 197.782h-382.804c-35.090 0-63.801-28.71-63.801-63.801v-146.741c38.28 0 57.421 12.76 79.751 25.52 25.52 15.95 51.040 31.9 98.891 31.9zM512 192.798c35.090 0 63.801 25.52 63.801 76.561 9.57 338.143 105.271 555.065 121.221 599.726 3.19 9.57 3.19 22.33-3.19 25.52 0 0-3.19 0-3.19 0-6.38 0-12.76-6.38-19.14-12.76-22.33-31.9-226.492-350.903-226.492-612.486 3.19-51.040 31.9-76.561 66.991-76.561zM384.399 269.358c0 25.52 3.19 47.85 3.19 73.371-12.76-3.19-25.52-6.38-44.66-6.38-38.28 0-66.991 15.95-92.511 28.71-22.33 12.76-44.66 22.33-73.371 22.33-38.28 0-57.421-12.76-79.751-25.52s-51.040-28.71-95.701-28.71v-108.461h389.184c-3.19 12.76-6.38 28.71-6.38 44.66zM958.604 575.601h-283.913c-12.76-60.611-22.33-127.601-28.71-204.162 12.76-3.19 25.52-6.38 38.28-6.38 38.28 0 57.421 12.76 79.751 25.52s47.85 31.9 95.701 31.9c38.28 0 63.801-12.76 89.321-28.71 22.33-12.76 44.66-25.52 76.561-25.52v143.551c-3.19 35.090-31.9 63.801-66.991 63.801zM856.523 390.579c-35.090 0-57.421-12.76-79.751-25.52s-47.85-31.9-95.701-31.9c-15.95 0-28.71 3.19-41.47 6.38 0-22.33-3.19-47.85-3.19-73.371 0-15.95-3.19-28.71-6.38-41.47h392.374v111.651c-38.28 0-66.991 15.95-92.511 28.71-22.33 12.76-44.66 25.52-73.371 25.52zM512 128.997c-28.71 0-60.611 9.57-82.941 31.9h-427.464v-95.701c0-35.090 28.71-63.801 63.801-63.801h893.209c35.090 0 63.801 28.71 63.801 63.801v95.701h-427.464c-22.33-19.14-51.040-31.9-82.941-31.9z" />
<glyph unicode="&#xe903;" glyph-name="dermatology_3" d="M75.852 489.719h618.193c41.719 0 75.852-34.133 75.852-75.852v-394.43c0-41.719-34.133-75.852-75.852-75.852h-618.193c-41.719 0-75.852 34.133-75.852 75.852v390.637c0 45.511 34.133 79.644 75.852 79.644zM45.511 622.459h682.667v-56.889h-682.667v56.889zM697.837 698.311h-625.778c0 109.985 113.778 136.533 288.237 136.533 201.007 0 132.741 91.022 117.57 121.363 166.874-15.17 238.933-98.607 219.97-257.896zM1024-3.319l-64.474 690.252c-3.793 22.756-18.963 37.926-41.719 34.133l-83.437-7.585c-22.756-3.793-37.926-18.963-34.133-41.719l64.474-690.252c3.793-22.756 18.963-37.926 41.719-34.133l83.437 7.585c18.963 0 34.133 18.963 34.133 41.719z" />
<glyph unicode="&#xe904;" glyph-name="dermatology_4" d="M963.2 320c-9.6-214.4-188.8-384-406.4-384v0c-230.4 0-428.8 156.8-492.8 371.2 0 0 0 0 0 0-3.2 9.6-6.4 19.2-6.4 28.8 0 38.4 28.8 67.2 67.2 67.2 25.6 0 48-12.8 57.6-35.2 0 0 0 0 0 0s57.6-108.8 115.2-108.8c28.8 0 25.6 16 25.6 32 0 48-3.2 105.6-3.2 156.8v380.8c0 38.4 28.8 67.2 67.2 67.2s67.2-28.8 67.2-67.2v-281.6c9.6 0 22.4 3.2 35.2 3.2v342.4c0 38.4 28.8 67.2 67.2 67.2s67.2-28.8 67.2-67.2v-355.2c12.8-3.2 22.4-3.2 35.2-6.4v297.6c0 38.4 28.8 67.2 67.2 67.2s67.2-28.8 67.2-67.2v-339.2c12.8-6.4 22.4-9.6 35.2-16v220.8c0 38.4 28.8 67.2 67.2 67.2s67.2-28.8 67.2-67.2v-374.4zM588.8 393.6c0 0-96-86.4-96-160 0-54.4 41.6-96 96-96s96 41.6 96 96c0 73.6-96 160-96 160z" />
<glyph unicode="&#xe905;" glyph-name="ent_1" d="M1011.953 788.329c0 84.329-66.259 150.588-150.588 150.588s-150.588-66.259-150.588-150.588c0-72.282 51.2-132.518 120.471-147.576v-385.506c0-144.565-117.459-259.012-259.012-259.012-144.565 0-259.012 117.459-259.012 259.012v42.165c135.529 15.059 240.941 129.506 240.941 268.047v394.541h-180.706v-90.353h60.235v30.118h60.235v-331.294c0-33.129-9.035-63.247-21.082-90.353h-379.482c-12.047 27.106-21.082 57.224-21.082 90.353v331.294h60.235v-30.118h60.235v90.353h-180.706v-391.529c0-138.541 105.412-252.988 240.941-268.047v-42.165c0-177.694 141.553-322.259 319.247-322.259s319.247 144.565 319.247 319.247v385.506c69.271 15.059 120.471 75.294 120.471 147.576zM430.682 417.882c-39.153-36.141-90.353-60.235-147.576-60.235s-108.424 24.094-147.576 60.235h295.153zM861.365 697.976c-51.2 0-90.353 39.153-90.353 90.353s39.153 90.353 90.353 90.353 90.353-39.153 90.353-90.353-39.153-90.353-90.353-90.353zM861.365 842.541c-30.118 0-54.212-24.094-54.212-54.212s24.094-54.212 54.212-54.212 54.212 24.094 54.212 54.212c0 30.118-24.094 54.212-54.212 54.212zM861.365 764.235c-12.047 0-24.094 12.047-24.094 24.094s12.047 24.094 24.094 24.094 24.094-12.047 24.094-24.094c0-12.047-9.035-24.094-24.094-24.094z" />
<glyph unicode="&#xe906;" glyph-name="ent_2" d="M852.302 621.245c0 188.713-151.589 340.302-340.302 340.302-173.245 0-315.553-129.934-337.208-296.991v0 0c-3.094-15.468-3.094-27.843-3.094-43.311s0-491.891 0-501.172c0-102.091 83.529-182.526 182.526-182.526 95.903 0 173.245 74.248 182.526 167.057 0 0 0 15.468 0 15.468 6.187 123.746 98.997 167.057 188.713 238.211v0c77.341 58.779 126.84 154.683 126.84 262.961zM648.121 451.094l-6.187-3.094c-12.375-9.281-24.749-18.562-37.124-27.843-74.248-61.873-191.807-157.776-191.807-247.492v0c-3.094-30.937-27.843-52.592-58.779-52.592-34.030 0-58.779 27.843-58.779 58.779v154.683c37.124 15.468 61.873 52.592 61.873 95.903s-24.749 80.435-61.873 95.903v95.903c0 6.187 0 15.468 3.094 24.749v3.094c15.468 108.278 105.184 188.713 213.462 188.713 120.653 0 216.556-95.903 216.556-216.556 0-64.967-27.843-126.84-80.435-170.151zM641.934 596.495h-30.937c0 58.779-49.498 108.278-108.278 108.278v30.937c74.248 0 139.214-61.873 139.214-139.214z" />
<glyph unicode="&#xe907;" glyph-name="ent_3" d="M800 387.2c-35.2 35.2-86.4 198.4-105.6 361.6-12.8 118.4-83.2 211.2-176 211.2s-176-86.4-188.8-201.6c-19.2-163.2-67.2-326.4-105.6-361.6-25.6-25.6-131.2-64-131.2-182.4 0-51.2 44.8-118.4 131.2-118.4h73.6c44.8-96 124.8-160 217.6-160 96 0 169.6 54.4 214.4 150.4h70.4c89.6 0 131.2 70.4 131.2 118.4 3.2 118.4-105.6 156.8-131.2 182.4zM284.8 150.4h-89.6v32h89.6v-32zM838.4 150.4h-89.6v32h89.6v-32z" />
<glyph unicode="&#xe908;" glyph-name="ent_4" d="M397.75 491.942c46.872 46.872 120.109 46.872 166.981 0s46.872-120.109 0-166.981l-348.61-348.61c-46.872-46.872-120.109-46.872-166.981 0s-46.872 120.109 0 166.981l348.61 348.61zM613.957 746.334l-41.429 41.429 165.715 165.715 41.429-41.429-165.715-165.715zM945.566 746.809l-125.968 123.039-164.052-164.052 123.039-125.968 146.475-20.506 41.013-41.013 41.013 41.013-41.013 41.013zM635.115 644.677l82.858-82.858-82.858-82.858-82.858 82.858 82.858 82.858z" />
<glyph unicode="&#xe909;" glyph-name="gastro_1" d="M1011.953 788.329c0 84.329-66.259 150.588-150.588 150.588s-150.588-66.259-150.588-150.588c0-72.282 51.2-132.518 120.471-147.576v-385.506c0-144.565-117.459-259.012-259.012-259.012-144.565 0-259.012 117.459-259.012 259.012v42.165c135.529 15.059 240.941 129.506 240.941 268.047v394.541h-180.706v-90.353h60.235v30.118h60.235v-331.294c0-33.129-9.035-63.247-21.082-90.353h-379.482c-12.047 27.106-21.082 57.224-21.082 90.353v331.294h60.235v-30.118h60.235v90.353h-180.706v-391.529c0-138.541 105.412-252.988 240.941-268.047v-42.165c0-177.694 141.553-322.259 319.247-322.259s319.247 144.565 319.247 319.247v385.506c69.271 15.059 120.471 75.294 120.471 147.576zM430.682 417.882c-39.153-36.141-90.353-60.235-147.576-60.235s-108.424 24.094-147.576 60.235h295.153zM861.365 697.976c-51.2 0-90.353 39.153-90.353 90.353s39.153 90.353 90.353 90.353 90.353-39.153 90.353-90.353-39.153-90.353-90.353-90.353zM861.365 842.541c-30.118 0-54.212-24.094-54.212-54.212s24.094-54.212 54.212-54.212 54.212 24.094 54.212 54.212c0 30.118-24.094 54.212-54.212 54.212zM861.365 764.235c-12.047 0-24.094 12.047-24.094 24.094s12.047 24.094 24.094 24.094 24.094-12.047 24.094-24.094c0-12.047-9.035-24.094-24.094-24.094z" />
<glyph unicode="&#xe90a;" glyph-name="gastro_2" d="M821.935 776.166c-75.964 0-136.736-45.579-164.083-112.427-161.045 3.039-288.665 136.736-288.665 297.78h-63.81c0-191.43 151.929-349.436 340.32-358.552 0 0 0 0 0-3.039-15.193-100.273-106.35-176.237-209.662-176.237-3.039 0-6.077 0-9.116-3.039-33.424-3.039-63.81-15.193-88.119-36.463-3.039 0-3.039 0-3.039 0v0c-30.386-24.309-54.694-60.772-63.81-103.312-142.813-48.617-246.125-182.315-246.125-343.359h63.81c0 121.543 75.964 227.893 182.315 273.472 15.193-82.042 88.119-142.813 173.199-142.813h121.543c233.97 0 431.478 191.43 431.478 425.401v106.35c0 97.234-79.003 176.237-176.237 176.237zM928.285 490.54c0-194.469-161.045-352.475-358.552-355.513h-121.543c-57.733 0-106.35 48.617-106.35 106.35 0 30.386 15.193 60.772 39.501 82.042l3.039 3.039c15.193 12.154 33.424 18.231 51.656 21.27h9.116c112.427 3.039 212.7 75.964 255.24 179.276h230.932v-36.463z" />
<glyph unicode="&#xe90b;" glyph-name="gastro_3" d="M704 960h-384c-35.2 0-64-28.8-64-64v-128h64v128h384v-128h64v128c0 35.2-28.8 64-64 64zM960 704h-896c-35.2 0-64-28.8-64-64v-640c0-35.2 28.8-64 64-64h896c35.2 0 64 28.8 64 64v640c0 35.2-28.8 64-64 64zM512 64c-140.8 0-256 115.2-256 256s115.2 256 256 256 256-115.2 256-256-115.2-256-256-256zM672 352h-128v128h-64v-128h-128v-64h128v-128h64v128h128z" />
<glyph unicode="&#xe90c;" glyph-name="gastro_4" d="M1024 534.4c0 3.2 0 6.4 0 9.6 0 6.4 0 12.8 0 19.2 0 150.4-121.6 268.8-268.8 268.8l-121.6-32c-19.2-48-64-83.2-118.4-83.2s-99.2 35.2-118.4 83.2l-124.8 32c-150.4 0-272-121.6-272-268.8 0-9.6 0-19.2 0-28.8 0 0 0 0 0 0s0 0 0 0c3.2-16 6.4-35.2 9.6-51.2 41.6-195.2 108.8-368 246.4-505.6 22.4-25.6 57.6-41.6 92.8-41.6h41.6c22.4 22.4 86.4 35.2 118.4 35.2s96-12.8 118.4-35.2h44.8c35.2 0 67.2 12.8 89.6 38.4 0 0 0 0 0 0 144 140.8 211.2 323.2 252.8 528 0 3.2 3.2 9.6 3.2 12.8 3.2 6.4 6.4 12.8 6.4 19.2zM473.6 816h64v16c0 35.2 28.8 64 64 64v64c-70.4 0-128-57.6-128-128v-16z" />
<glyph unicode="&#xe90d;" glyph-name="general_dentist_1" d="M512 320.399c-35.090 0-51.041-31.9-63.801-63.801-22.33-70.181-51.041-140.361-66.991-264.773 0-3.19 0-3.19 0-6.38v0c0 0 0 0 0 0-6.38-28.71-31.9-47.85-60.611-47.85-35.090 0-63.801 28.71-63.801 63.801-60.611 299.863-118.031 414.704-207.352 555.065 0 3.19-3.19 3.19-3.19 6.38-28.71 38.28-44.66 86.131-44.66 140.361 0 140.361 114.841 255.203 255.203 255.203 47.85 0 89.321-12.76 127.601-35.090 0 0 0 0 0 0 38.28-22.33 79.751-35.090 127.601-35.090s89.321 12.76 127.601 35.090c0 0 0 0 0 0 38.28 22.33 79.751 35.090 127.601 35.090 140.361 0 255.203-114.841 255.203-255.203 0-54.231-15.95-102.081-44.66-143.551 0-3.19-3.19-3.19-3.19-6.38-92.511-140.361-153.122-255.203-210.542-555.065 0-35.090-28.71-63.801-63.801-63.801-28.71 0-54.231 22.33-60.611 47.85 0 0 0 0 0 0v0c0 3.19 0 3.19 0 6.38-15.95 124.411-41.47 194.592-63.801 264.773-12.76 35.090-28.71 66.991-63.801 66.991zM677.882 747.863l-28.71 57.421c0 0-63.801-31.9-137.171-31.9s-137.171 31.9-137.171 31.9l-28.71-57.421c3.19 0 76.561-38.28 165.882-38.28s162.692 35.090 165.882 38.28z" />
<glyph unicode="&#xe90e;" glyph-name="general_dentist_2" d="M947.575 755.465l-128.11 128.11-131.313-28.825 230.598-230.598zM1024.441 877.169l-83.272 83.272-80.069-64.055 99.285-99.285zM77.44 337.294l321.583-321.583-76.999-76.999-321.583 321.583 76.999 76.999zM662.53 601.732c-3.203 3.203-9.608 6.406-16.014 6.406s-12.811-3.203-16.014-6.406l-256.221-256.221c-3.203-3.203-6.406-9.608-6.406-16.014s3.203-12.811 6.406-16.014l3.203-3.203c9.608-9.608 22.419-9.608 32.028 0l256.221 256.221c9.608 9.608 9.608 25.622-3.203 35.23v0zM624.096 816.317l-496.427-429.169 323.478-323.478 429.169 496.427-256.221 256.221zM431.931 287.862c-9.608-9.608-25.622-16.014-38.433-16.014s-28.825 6.406-38.433 16.014l-3.203 3.203c-9.608 9.608-16.014 22.419-16.014 38.433s6.406 28.825 16.014 38.433l256.221 256.221c22.419 22.419 54.447 22.419 76.866 0l3.203-3.203c22.419-22.419 22.419-54.447 0-76.866l-256.221-256.221z" />
<glyph unicode="&#xe90f;" glyph-name="general_dentist_3" d="M880.64 54.154c-78.769 0-141.785 63.015-141.785 141.785 0 72.468 69.317 179.594 135.483 280.418 56.714 85.071 116.578 176.443 116.578 223.705 0 56.714-44.111 100.825-100.825 100.825s-100.825-44.111-100.825-100.825v-15.754h-44.111l3.151 31.508h9.452c6.302 66.166 63.015 116.578 132.332 116.578 72.468 0 132.332-59.865 132.332-132.332 0-59.865-59.865-148.086-119.729-242.609-63.015-97.674-132.332-198.498-132.332-261.514 0-59.865 50.412-110.277 110.277-110.277s110.277 50.412 110.277 110.277h31.508c0-78.769-63.015-141.785-141.785-141.785zM193.772 731.569l47.262-63.015h277.268l47.262 63.015h182.745l6.302 94.523c0 69.317-56.714 126.031-126.031 126.031h-504.123c-69.317 0-126.031-56.714-126.031-126.031l9.452-94.523h185.895zM543.508 470.055h-330.831c-18.905 0-34.658-15.754-34.658-34.658s15.754-34.658 34.658-34.658h330.831c18.905 0 34.658 15.754 34.658 34.658s-15.754 34.658-34.658 34.658zM606.523 668.554l-47.262-63.015h-362.338l-47.262 63.015h-138.634l50.412-661.662c0-34.658 28.357-63.015 63.015-63.015h504.123c34.658 0 63.015 28.357 63.015 63.015l50.412 661.662h-135.483zM543.508 369.231h-330.831c-37.809 0-66.166 28.357-66.166 66.166s28.357 66.166 66.166 66.166h330.831c37.809 0 66.166-28.357 66.166-66.166s-31.508-66.166-66.166-66.166z" />
<glyph unicode="&#xe910;" glyph-name="general_dentist_4" d="M4.785 703.203c0 140.361 105.271 255.203 239.252 255.203 130.791 0 526.355-63.801 599.726-63.801 66.991 0 95.701 19.14 114.841 63.801 0-140.361-105.271-255.203-239.252-255.203-130.791 0-526.355 63.801-599.726 63.801-66.991 0-98.891-19.14-114.841-63.801zM990.505-62.405h-861.309c-70.181 0-127.601 57.421-127.601 127.601v0c0 70.181 57.421 127.601 127.601 127.601h784.748c9.57 0 15.95-3.19 15.95-12.76 0 0 0-38.28 0-41.47 0-6.38 3.19-9.57 9.57-9.57s54.231 0 54.231 0c19.14 0 31.9-12.76 31.9-31.9v-127.601c-3.19-19.14-15.95-31.9-35.090-31.9zM767.203 556.461l-95.701 51.041-95.701-51.041-95.701 51.041-95.701-51.041-95.701 51.041-95.701-51.041-95.701 51.041v-350.903h79.751v98.891h31.9v-98.891h63.801v98.891h31.9v-98.891h63.801v98.891h31.9v-98.891h63.801v98.891h31.9v-98.891h63.801v98.891h31.9v-98.891h63.801v98.891h31.9v-98.891h63.801v98.891h31.9v-98.891h79.751v350.903z" />
<glyph unicode="&#xe911;" glyph-name="general_medical_1" d="M1011.953 788.329c0 84.329-66.259 150.588-150.588 150.588s-150.588-66.259-150.588-150.588c0-72.282 51.2-132.518 120.471-147.576v-385.506c0-144.565-117.459-259.012-259.012-259.012-144.565 0-259.012 117.459-259.012 259.012v42.165c135.529 15.059 240.941 129.506 240.941 268.047v394.541h-180.706v-90.353h60.235v30.118h60.235v-331.294c0-33.129-9.035-63.247-21.082-90.353h-379.482c-12.047 27.106-21.082 57.224-21.082 90.353v331.294h60.235v-30.118h60.235v90.353h-180.706v-391.529c0-138.541 105.412-252.988 240.941-268.047v-42.165c0-177.694 141.553-322.259 319.247-322.259s319.247 144.565 319.247 319.247v385.506c69.271 15.059 120.471 75.294 120.471 147.576zM430.682 417.882c-39.153-36.141-90.353-60.235-147.576-60.235s-108.424 24.094-147.576 60.235h295.153zM861.365 697.976c-51.2 0-90.353 39.153-90.353 90.353s39.153 90.353 90.353 90.353 90.353-39.153 90.353-90.353-39.153-90.353-90.353-90.353zM861.365 842.541c-30.118 0-54.212-24.094-54.212-54.212s24.094-54.212 54.212-54.212 54.212 24.094 54.212 54.212c0 30.118-24.094 54.212-54.212 54.212zM861.365 764.235c-12.047 0-24.094 12.047-24.094 24.094s12.047 24.094 24.094 24.094 24.094-12.047 24.094-24.094c0-12.047-9.035-24.094-24.094-24.094z" />
<glyph unicode="&#xe912;" glyph-name="general_medical_2" d="M704 960h-384c-35.2 0-64-28.8-64-64v-128h64v128h384v-128h64v128c0 35.2-28.8 64-64 64zM960 704h-896c-35.2 0-64-28.8-64-64v-640c0-35.2 28.8-64 64-64h896c35.2 0 64 28.8 64 64v640c0 35.2-28.8 64-64 64zM512 64c-140.8 0-256 115.2-256 256s115.2 256 256 256 256-115.2 256-256-115.2-256-256-256zM672 352h-128v128h-64v-128h-128v-64h128v-128h64v128h128z" />
<glyph unicode="&#xe913;" glyph-name="general_medical_3" d="M521.63 98.107l121.981 109.141c-12.84 6.42-25.68 12.84-41.73 16.050v51.361c-28.89-9.63-57.781-16.050-89.881-16.050s-60.991 6.42-89.881 16.050v-51.361c-12.84-3.21-28.89-9.63-41.73-16.050l141.241-109.141zM816.953 59.586c-19.26 25.68-73.831 86.671-147.661 131.611l-182.972-166.922-22.47 22.47 28.89 28.89-138.031 115.561c-73.831-44.94-125.191-105.931-147.661-131.611-6.42-6.42-3.21-16.050 3.21-19.26 35.31-28.89 121.981-102.721 301.743-102.721 182.972 0 263.223 70.621 301.743 102.721 6.42 3.21 9.63 12.84 3.21 19.26zM723.862 46.746h-41.73v-41.73h-32.1v41.73h-41.73v32.1h41.73v41.73h32.1v-41.73h41.73v-32.1zM357.918 316.389c-48.15 41.73-80.251 105.931-80.251 176.552v221.492l19.26 9.63c3.21 3.21 115.561 57.781 215.072 57.781 93.091 0 211.862-54.571 215.072-57.781l19.26-9.63v-221.492c0-70.621-32.1-134.821-80.251-176.552v-54.571c80.251 12.84 157.292 38.52 227.912 73.831 0 0-54.571 12.84-54.571 54.571v243.962c-3.21 179.762-147.661 327.423-327.423 327.423s-324.213-144.451-324.213-324.213v-243.962c0-38.52-54.571-54.571-54.571-54.571 70.621-35.31 147.661-60.991 227.912-73.831l-3.21 51.361zM682.132 675.912c-35.31 12.84-109.141 41.73-170.132 41.73-64.201 0-138.031-28.89-170.132-41.73v-182.972c0-93.091 77.041-170.132 170.132-170.132s170.132 77.041 170.132 170.132v182.972z" />
<glyph unicode="&#xe914;" glyph-name="general_medical_4" d="M512 812.475c0 0 176.452 199.593 381.83 17.356 66.531-57.853 107.028-153.311 43.39-329.763h-46.282l-60.746 31.819-60.746-31.819h-52.068l-23.141-69.424-75.209 222.734-46.282-138.847-26.034 78.102-80.994-92.565h-127.277l-57.853 31.819-60.746-31.819h-133.062c0 0-89.672 179.345 46.282 332.655 57.853 72.316 231.412 130.169 378.938-20.249zM914.079 453.785h-34.712l-49.175 26.034-49.175-26.034h-28.927l-57.853-179.345-75.209 234.305-46.282-112.814-43.39 107.028-43.39-46.282h-156.203l-49.175 23.141-49.175-26.034h-124.384c107.028-173.559 242.983-326.87 404.972-465.717 161.989 138.847 297.943 292.158 402.079 465.717z" />
<glyph unicode="&#xe915;" glyph-name="obgyn_1" d="M1011.953 788.329c0 84.329-66.259 150.588-150.588 150.588s-150.588-66.259-150.588-150.588c0-72.282 51.2-132.518 120.471-147.576v-385.506c0-144.565-117.459-259.012-259.012-259.012-144.565 0-259.012 117.459-259.012 259.012v42.165c135.529 15.059 240.941 129.506 240.941 268.047v394.541h-180.706v-90.353h60.235v30.118h60.235v-331.294c0-33.129-9.035-63.247-21.082-90.353h-379.482c-12.047 27.106-21.082 57.224-21.082 90.353v331.294h60.235v-30.118h60.235v90.353h-180.706v-391.529c0-138.541 105.412-252.988 240.941-268.047v-42.165c0-177.694 141.553-322.259 319.247-322.259s319.247 144.565 319.247 319.247v385.506c69.271 15.059 120.471 75.294 120.471 147.576zM430.682 417.882c-39.153-36.141-90.353-60.235-147.576-60.235s-108.424 24.094-147.576 60.235h295.153zM861.365 697.976c-51.2 0-90.353 39.153-90.353 90.353s39.153 90.353 90.353 90.353 90.353-39.153 90.353-90.353-39.153-90.353-90.353-90.353zM861.365 842.541c-30.118 0-54.212-24.094-54.212-54.212s24.094-54.212 54.212-54.212 54.212 24.094 54.212 54.212c0 30.118-24.094 54.212-54.212 54.212zM861.365 764.235c-12.047 0-24.094 12.047-24.094 24.094s12.047 24.094 24.094 24.094 24.094-12.047 24.094-24.094c0-12.047-9.035-24.094-24.094-24.094z" />
<glyph unicode="&#xe916;" glyph-name="obgyn_2" d="M880 592c0 204.8-166.4 368-368 368s-368-166.4-368-368c0-192 147.2-348.8 336-368v0-115.2h-115.2v-64h115.2v-108.8h64v115.2h115.2v64h-115.2v115.2c188.8 12.8 336 169.6 336 361.6zM512 320c-150.4 0-272 121.6-272 272s121.6 272 272 272 272-121.6 272-272-121.6-272-272-272z" />
<glyph unicode="&#xe917;" glyph-name="obgyn_3" d="M1008.294 316.074v0l-182.184 540.27h-3.141c-3.141 9.423-6.282 18.847-12.564 25.129-15.706 18.847-40.834 25.129-65.963 18.847-40.834-12.564-160.196-43.975-232.442-43.975v0c-72.245 0-191.607 31.411-235.583 43.975-25.129 6.282-50.258 0-65.963-18.847-6.282-6.282-9.423-15.706-12.564-25.129v0l-182.184-537.129c-15.706-43.975-6.282-94.233 28.27-128.785 25.129-25.129 182.184-194.748 464.883-194.748v0c285.84 0 439.755 169.62 464.883 194.748 40.834 31.411 50.258 81.669 34.552 125.644zM662.773 407.166c-12.564-18.847-21.988-40.834-43.975-59.681-12.564-12.564-21.988-25.129-28.27-40.834-12.564-31.411-43.975-56.54-78.528-59.681-9.423 0-18.847-3.141-28.27-3.141-56.54 0-106.798 21.988-147.632 59.681l-25.129-18.847c-25.129-18.847-59.681-12.564-75.387 15.706-9.423 21.988-3.141 47.117 15.706 59.681l62.822 47.117c6.282 6.282 12.564 9.423 21.988 9.423 21.988 3.141 40.834-6.282 50.258-21.988 12.564-21.988 43.975-37.693 62.822-47.117 9.423 34.552 34.552 53.399 69.104 65.963l-69.104 62.822c-21.988 15.706-25.129 47.117-9.423 69.104s47.117 25.129 69.104 9.423l141.35-100.515c18.847-9.423 25.129-31.411 12.564-47.117zM694.184 498.258c-53.399 0-94.233 40.834-94.233 94.233s40.834 94.233 94.233 94.233 94.233-40.834 94.233-94.233c0-53.399-43.975-94.233-94.233-94.233z" />
<glyph unicode="&#xe918;" glyph-name="obgyn_4" d="M521.63 98.107l121.981 109.141c-12.84 6.42-25.68 12.84-41.73 16.050v51.361c-28.89-9.63-57.781-16.050-89.881-16.050s-60.991 6.42-89.881 16.050v-51.361c-12.84-3.21-28.89-9.63-41.73-16.050l141.241-109.141zM816.953 59.586c-19.26 25.68-73.831 86.671-147.661 131.611l-182.972-166.922-22.47 22.47 28.89 28.89-138.031 115.561c-73.831-44.94-125.191-105.931-147.661-131.611-6.42-6.42-3.21-16.050 3.21-19.26 35.31-28.89 121.981-102.721 301.743-102.721 182.972 0 263.223 70.621 301.743 102.721 6.42 3.21 9.63 12.84 3.21 19.26zM723.862 46.746h-41.73v-41.73h-32.1v41.73h-41.73v32.1h41.73v41.73h32.1v-41.73h41.73v-32.1zM357.918 316.389c-48.15 41.73-80.251 105.931-80.251 176.552v221.492l19.26 9.63c3.21 3.21 115.561 57.781 215.072 57.781 93.091 0 211.862-54.571 215.072-57.781l19.26-9.63v-221.492c0-70.621-32.1-134.821-80.251-176.552v-54.571c80.251 12.84 157.292 38.52 227.912 73.831 0 0-54.571 12.84-54.571 54.571v243.962c-3.21 179.762-147.661 327.423-327.423 327.423s-324.213-144.451-324.213-324.213v-243.962c0-38.52-54.571-54.571-54.571-54.571 70.621-35.31 147.661-60.991 227.912-73.831l-3.21 51.361zM682.132 675.912c-35.31 12.84-109.141 41.73-170.132 41.73-64.201 0-138.031-28.89-170.132-41.73v-182.972c0-93.091 77.041-170.132 170.132-170.132s170.132 77.041 170.132 170.132v182.972z" />
<glyph unicode="&#xe919;" glyph-name="orthodontics_1" d="M512 320.399c-35.090 0-51.041-31.9-63.801-63.801-22.33-70.181-51.041-140.361-66.991-264.773 0-3.19 0-3.19 0-6.38v0c0 0 0 0 0 0-6.38-28.71-31.9-47.85-60.611-47.85-35.090 0-63.801 28.71-63.801 63.801-60.611 299.863-118.031 414.704-207.352 555.065 0 3.19-3.19 3.19-3.19 6.38-28.71 38.28-44.66 86.131-44.66 140.361 0 140.361 114.841 255.203 255.203 255.203 47.85 0 89.321-12.76 127.601-35.090 0 0 0 0 0 0 38.28-22.33 79.751-35.090 127.601-35.090s89.321 12.76 127.601 35.090c0 0 0 0 0 0 38.28 22.33 79.751 35.090 127.601 35.090 140.361 0 255.203-114.841 255.203-255.203 0-54.231-15.95-102.081-44.66-143.551 0-3.19-3.19-3.19-3.19-6.38-92.511-140.361-153.122-255.203-210.542-555.065 0-35.090-28.71-63.801-63.801-63.801-28.71 0-54.231 22.33-60.611 47.85 0 0 0 0 0 0v0c0 3.19 0 3.19 0 6.38-15.95 124.411-41.47 194.592-63.801 264.773-12.76 35.090-28.71 66.991-63.801 66.991zM677.882 747.863l-28.71 57.421c0 0-63.801-31.9-137.171-31.9s-137.171 31.9-137.171 31.9l-28.71-57.421c3.19 0 76.561-38.28 165.882-38.28s162.692 35.090 165.882 38.28z" />
<glyph unicode="&#xe91a;" glyph-name="orthodontics_2" d="M3.972 640.364h-4.517c0 47.41 35.75 83.16 83.16 83.16v-4.517c-44.848 0-78.644-33.796-78.644-78.644zM1023.455 640.364h-4.517c0 44.848-33.796 78.644-78.644 78.644v4.517c47.41 0 83.16-35.75 83.16-83.16zM195.888 454.279c0 10.795 5.382 18.868 13.486 18.868l21.559-5.414c8.105-2.659 13.486-8.073 13.486-18.868v-10.795c37.768-8.073 78.195-13.486 118.654-16.145v18.868c0 8.105 5.382 13.486 13.454 13.486h35.077c8.105 0 13.454-5.414 13.454-13.486v-24.282c24.282-2.691 51.254-2.691 78.227-2.691s53.945 0 78.195 2.691v24.282c0 8.105 5.382 13.486 13.486 13.486h35.045c8.105 0 13.486-5.414 13.486-13.486v-18.868c45.809 5.382 88.991 10.795 126.759 18.868v2.691c0 10.795 8.105 16.177 13.486 18.868l21.559 5.382c8.105 2.691 13.454-8.073 13.454-16.177 29.696 8.105 56.668 13.486 80.918 21.559 21.559 53.945 32.354 113.272 32.354 172.599-132.108-53.913-275.044-80.886-431.466-80.886-156.454 0-302.081 29.664-431.531 80.886 0-56.636 10.795-115.963 32.386-169.909 24.282-8.105 53.945-16.209 86.3-21.591v0h8.073v0.032zM503.383 411.577c-26.556 0-54.073 0-78.483 2.691l-2.018 0.224v26.3c0 6.823-4.421 11.212-11.212 11.212h-35.077c-6.791 0-11.212-4.389-11.212-11.212v-21.303l-2.435 0.16c-41.676 2.819-81.719 8.233-119.006 16.241l-1.794 0.384v12.621c0 8.841-3.684 13.967-11.949 16.754l-21.11 5.254c-6.471-0.16-10.956-6.919-10.956-16.594v-2.274l-10.731 0.032c-28.735 4.773-57.886 12.109-86.652 21.655l-0.961 0.288-0.384 0.993c-21.271 53.209-32.547 112.247-32.547 170.773v3.332l3.107-1.217c135.376-53.561 280.266-80.726 430.666-80.726 156.711 0 297.564 26.396 430.666 80.726l3.107 1.281v-3.396c0-60.288-11.244-120.256-32.515-173.432l-0.384-1.025-0.993-0.32c-15.216-5.093-31.457-9.098-48.692-13.326-10.443-2.563-21.174-5.254-32.322-8.297l-2.883-0.769v2.979c0 6.471-3.876 14.351-8.713 14.351-0.577 0-1.185-0.096-1.794-0.32l-21.495-5.382c-8.073-4.1-12.013-9.578-12.013-16.754v-4.517l-1.794-0.384c-38.024-8.137-81.751-13.582-126.951-18.9l-2.531-0.32v21.431c0 6.823-4.421 11.212-11.244 11.212h-35.045c-6.823 0-11.244-4.389-11.244-11.212v-26.3l-2.018-0.224c-24.346-2.691-51.863-2.691-78.419-2.691zM427.398 418.561c23.673-2.467 50.229-2.467 75.953-2.467s52.312 0 75.953 2.467v22.232c0 9.258 6.471 15.761 15.761 15.761h35.045c9.29 0 15.761-6.471 15.761-15.761v-16.305c43.47 5.093 85.499 10.379 122.21 18.131v0.897c0 8.97 4.997 15.985 14.768 20.886l0.448 0.16 21.591 5.414c0.897 0.32 1.986 0.481 3.043 0.481 7.496 0 12.045-8.617 13.070-15.985 10.251 2.755 20.149 5.222 29.76 7.592 16.754 4.132 32.611 8.073 47.378 12.91 20.406 51.415 31.393 109.204 31.81 167.41-132.749-53.689-273.218-79.829-429.256-79.829-149.855 0-294.233 26.845-429.256 79.861 0.416-56.476 11.404-113.368 31.81-164.751 28.158-9.354 56.636-16.465 84.762-21.142h5.734c0.737 11.244 6.983 18.868 15.665 18.868l0.545-0.064 21.559-5.382c10.283-3.428 15.216-10.283 15.216-21.078v-8.97c35.846-7.56 74.223-12.814 114.137-15.569v16.465c0 9.258 6.471 15.761 15.761 15.761h35.077c9.258 0 15.761-6.471 15.761-15.761v-22.2zM827.023 403.024c0-10.763-5.414-16.145-13.454-18.868l-21.591-5.382c-8.105-2.691-13.486 8.105-13.486 18.868v13.486c-37.768-8.105-80.886-13.486-126.759-18.9v-18.868c0-8.105-5.382-13.486-13.486-13.486h-35.045c-8.105 0-13.454 5.414-13.454 13.486v16.209c-24.282 0-51.254-2.691-78.227-2.691s-53.945 0-78.227 2.691v-16.209c0-8.105-5.382-13.486-13.454-13.486h-35.077c-8.073 0-13.454 5.414-13.454 13.486v21.591c-43.15 5.414-83.641 10.795-118.654 16.209v-8.105c0-10.763-8.105-18.868-13.486-18.868l-26.973 5.414c-8.105 2.691-13.486 8.105-13.486 18.868v13.486c-26.973 5.382-51.254 13.454-72.813 18.868 70.123-153.731 218.472-275.108 385.69-275.108s315.535 121.377 385.658 275.108c-21.559-5.414-43.15-10.795-67.4-16.209v-21.591h-2.755zM511.455 163.442c-80.053 0-159.786 27.774-230.613 80.341-66.022 49.012-121.793 118.622-157.127 196.048l-1.954 4.261 4.581-1.121c7.784-1.922 15.793-4.196 24.346-6.631 15.344-4.293 31.169-8.809 48.371-12.237l1.826-0.384v-15.344c0-8.777 3.62-13.935 11.789-16.69l26.556-5.318c4.004 0.224 11.052 7.015 11.052 16.626v10.731l2.595-0.416c31.425-4.837 70.219-10.123 118.59-16.209l1.986-0.224v-23.609c0-6.791 4.421-11.212 11.212-11.212h35.077c6.791 0 11.212 4.421 11.212 11.212v18.708l2.499-0.256c24.154-2.691 51.511-2.691 78.003-2.691 13.743 0 27.645 0.705 41.036 1.409 13.006 0.705 25.275 1.281 37.159 1.281h2.242v-18.42c0-6.791 4.389-11.212 11.212-11.212h35.045c6.823 0 11.244 4.421 11.244 11.212v20.918l1.986 0.224c45.136 5.318 88.766 10.731 126.566 18.868l2.723 0.577v-16.305c0-4.517 0.993-8.937 2.755-12.237 0.929-1.794 2.979-4.805 6.022-4.805 0.577 0 1.153 0.096 1.73 0.352l21.783 5.446c8.105 2.691 11.756 7.848 11.756 16.658v2.274h2.691v21.11l1.794 0.416c24.25 5.414 46.161 10.892 67.336 16.177l4.581 1.121-1.954-4.261c-35.334-77.426-91.105-147.068-157.127-196.048-70.827-52.568-150.56-80.341-230.613-80.341zM129.834 437.397c75.44-161.355 228.21-269.47 381.621-269.47s306.213 108.115 381.654 269.47c-19.284-4.805-39.242-9.738-61.121-14.608v-22.039h-2.755c-0.641-9.482-5.542-15.633-14.96-18.772l-21.751-5.446c-0.897-0.32-1.986-0.481-3.011-0.481-3.972 0-7.56 2.595-9.995 7.272-2.082 3.908-3.267 9.13-3.267 14.319v10.667c-36.807-7.688-78.804-12.974-122.242-18.099v-16.882c0-9.258-6.471-15.761-15.761-15.761h-35.045c-9.258 0-15.761 6.471-15.761 15.761v13.935c-11.052-0.064-22.552-0.641-34.661-1.281-13.454-0.705-27.357-1.409-41.26-1.409-25.659 0-52.183 0-75.953 2.435v-13.711c0-9.258-6.471-15.761-15.761-15.761h-35.045c-9.258 0-15.761 6.471-15.761 15.761v19.573c-46.161 5.766-83.577 10.892-114.137 15.569v-5.446c0-11.404-8.649-21.142-15.761-21.142l-0.416 0.032-27.261 5.51c-10.123 3.332-15.024 10.219-15.024 21.014v11.628c-16.658 3.428-32.034 7.752-46.898 11.949-6.823 1.922-13.326 3.78-19.637 5.382z" />
<glyph unicode="&#xe91b;" glyph-name="orthodontics_3" d="M880.64 54.154c-78.769 0-141.785 63.015-141.785 141.785 0 72.468 69.317 179.594 135.483 280.418 56.714 85.071 116.578 176.443 116.578 223.705 0 56.714-44.111 100.825-100.825 100.825s-100.825-44.111-100.825-100.825v-15.754h-44.111l3.151 31.508h9.452c6.302 66.166 63.015 116.578 132.332 116.578 72.468 0 132.332-59.865 132.332-132.332 0-59.865-59.865-148.086-119.729-242.609-63.015-97.674-132.332-198.498-132.332-261.514 0-59.865 50.412-110.277 110.277-110.277s110.277 50.412 110.277 110.277h31.508c0-78.769-63.015-141.785-141.785-141.785zM193.772 731.569l47.262-63.015h277.268l47.262 63.015h182.745l6.302 94.523c0 69.317-56.714 126.031-126.031 126.031h-504.123c-69.317 0-126.031-56.714-126.031-126.031l9.452-94.523h185.895zM606.523 668.554l-47.262-63.015h-362.338l-47.262 63.015h-138.634l50.412-661.662c0-34.658 28.357-63.015 63.015-63.015h504.123c34.658 0 63.015 28.357 63.015 63.015l50.412 661.662h-135.483zM543.508 369.231h-330.831c-37.809 0-66.166 28.357-66.166 66.166s28.357 66.166 66.166 66.166h330.831c37.809 0 66.166-28.357 66.166-66.166s-31.508-66.166-66.166-66.166zM543.508 470.055h-330.831c-18.905 0-34.658-15.754-34.658-34.658s15.754-34.658 34.658-34.658h330.831c18.905 0 34.658 15.754 34.658 34.658s-15.754 34.658-34.658 34.658z" />
<glyph unicode="&#xe91c;" glyph-name="orthodontics_4" d="M4.785 703.203c0 140.361 105.271 255.203 239.252 255.203 130.791 0 526.355-63.801 599.726-63.801 66.991 0 95.701 19.14 114.841 63.801 0-140.361-105.271-255.203-239.252-255.203-130.791 0-526.355 63.801-599.726 63.801-66.991 0-98.891-19.14-114.841-63.801zM990.505-62.405h-861.309c-70.181 0-127.601 57.421-127.601 127.601v0c0 70.181 57.421 127.601 127.601 127.601h784.748c9.57 0 15.95-3.19 15.95-12.76 0 0 0-38.28 0-41.47 0-6.38 3.19-9.57 9.57-9.57s54.231 0 54.231 0c19.14 0 31.9-12.76 31.9-31.9v-127.601c-3.19-19.14-15.95-31.9-35.090-31.9zM767.203 556.461l-95.701 51.041-95.701-51.041-95.701 51.041-95.701-51.041-95.701 51.041-95.701-51.041-95.701 51.041v-350.903h79.751v98.891h31.9v-98.891h63.801v98.891h31.9v-98.891h63.801v98.891h31.9v-98.891h63.801v98.891h31.9v-98.891h63.801v98.891h31.9v-98.891h63.801v98.891h31.9v-98.891h63.801v98.891h31.9v-98.891h79.751v350.903z" />
<glyph unicode="&#xe91d;" glyph-name="pediatric_1" d="M1011.953 788.329c0 84.329-66.259 150.588-150.588 150.588s-150.588-66.259-150.588-150.588c0-72.282 51.2-132.518 120.471-147.576v-385.506c0-144.565-117.459-259.012-259.012-259.012-144.565 0-259.012 117.459-259.012 259.012v42.165c135.529 15.059 240.941 129.506 240.941 268.047v394.541h-180.706v-90.353h60.235v30.118h60.235v-331.294c0-33.129-9.035-63.247-21.082-90.353h-379.482c-12.047 27.106-21.082 57.224-21.082 90.353v331.294h60.235v-30.118h60.235v90.353h-180.706v-391.529c0-138.541 105.412-252.988 240.941-268.047v-42.165c0-177.694 141.553-322.259 319.247-322.259s319.247 144.565 319.247 319.247v385.506c69.271 15.059 120.471 75.294 120.471 147.576zM430.682 417.882c-39.153-36.141-90.353-60.235-147.576-60.235s-108.424 24.094-147.576 60.235h295.153zM861.365 697.976c-51.2 0-90.353 39.153-90.353 90.353s39.153 90.353 90.353 90.353 90.353-39.153 90.353-90.353-39.153-90.353-90.353-90.353zM861.365 842.541c-30.118 0-54.212-24.094-54.212-54.212s24.094-54.212 54.212-54.212 54.212 24.094 54.212 54.212c0 30.118-24.094 54.212-54.212 54.212zM861.365 764.235c-12.047 0-24.094 12.047-24.094 24.094s12.047 24.094 24.094 24.094 24.094-12.047 24.094-24.094c0-12.047-9.035-24.094-24.094-24.094z" />
<glyph unicode="&#xe91e;" glyph-name="pediatric_2" d="M944 652.8c48 28.8 80 80 80 137.6 0 89.6-70.4 160-160 160-64 0-121.6-38.4-144-92.8 92.8-41.6 172.8-115.2 224-204.8zM80 652.8c51.2 89.6 128 160 224 204.8-22.4 54.4-80 92.8-144 92.8-89.6 0-160-70.4-160-160 0-57.6 32-108.8 80-137.6zM646.4 188.8c-35.2-32-76.8-51.2-118.4-54.4v102.4l70.4 70.4c12.8 12.8 3.2 38.4-16 38.4h-137.6c-19.2 0-28.8-22.4-16-38.4l67.2-70.4v-102.4c-41.6 3.2-83.2 22.4-118.4 54.4l-22.4-22.4c48-44.8 102.4-67.2 156.8-67.2 57.6 0 112 22.4 156.8 67.2l-22.4 22.4zM512 873.6c-256 0-464-208-464-464s208-464 464-464 464 208 464 464c0 252.8-208 464-464 464zM672 630.4c35.2 0 64-28.8 64-64s-28.8-64-64-64c-35.2 0-64 28.8-64 64 0 38.4 28.8 64 64 64zM352 630.4c35.2 0 64-28.8 64-64s-28.8-64-64-64c-35.2 0-64 28.8-64 64 0 38.4 28.8 64 64 64zM512-6.4c-140.8 0-256 115.2-256 256s115.2 256 256 256c140.8 0 256-115.2 256-256 0-144-115.2-256-256-256z" />
<glyph unicode="&#xe91f;" glyph-name="pediatric_3" d="M752.941 562.447c-3.012 0-6.024 0-9.035 0l-30.118 216.847c0 3.012-15.059 96.376-153.6 96.376h-108.424v-60.235h108.424c81.318 0 93.365-42.165 93.365-45.176l15.059-111.435c-156.612-30.118-286.118-93.365-382.494-186.729v93.365h45.176v60.235h-180.706v-60.235h105.412v-123.482c-12.047-12.047-24.094-27.106-33.129-42.165h-192.753v-30.118h171.671c-9.035-15.059-21.082-30.118-30.118-48.188-6.024 0-15.059 3.012-24.094 3.012-84.329 0-150.588-66.259-150.588-150.588s66.259-150.588 150.588-150.588c84.329 0 150.588 66.259 150.588 150.588 0 54.212-27.106 99.388-72.282 126.494 87.341 159.624 237.929 259.012 448.753 298.165l6.024-45.176c-117.459-30.118-201.788-135.529-201.788-262.024 0-150.588 120.471-271.059 271.059-271.059s271.059 120.471 271.059 271.059-117.459 271.059-268.047 271.059zM240.941 170.918c0-51.2-39.153-90.353-90.353-90.353s-90.353 39.153-90.353 90.353c0 48.188 39.153 87.341 84.329 90.353-12.047-27.106-21.082-54.212-30.118-81.318l57.224-18.071c9.035 27.106 18.071 54.212 30.118 81.318 24.094-15.059 39.153-42.165 39.153-72.282zM752.941 80.565c-117.459 0-210.824 93.365-210.824 210.824 0 96.376 63.247 174.682 150.588 201.788l30.118-207.812 60.235 9.035-30.118 207.812c0 0 0 0 0 0 117.459 0 210.824-93.365 210.824-210.824s-93.365-210.824-210.824-210.824z" />
<glyph unicode="&#xe920;" glyph-name="pediatric_4" d="M1024 534.4c0 3.2 0 6.4 0 9.6 0 6.4 0 12.8 0 19.2 0 150.4-121.6 268.8-268.8 268.8l-121.6-32c-19.2-48-64-83.2-118.4-83.2s-99.2 35.2-118.4 83.2l-124.8 32c-150.4 0-272-121.6-272-268.8 0-9.6 0-19.2 0-28.8 0 0 0 0 0 0s0 0 0 0c3.2-16 6.4-35.2 9.6-51.2 41.6-195.2 108.8-368 246.4-505.6 22.4-25.6 57.6-41.6 92.8-41.6h41.6c22.4 22.4 86.4 35.2 118.4 35.2s96-12.8 118.4-35.2h44.8c35.2 0 67.2 12.8 89.6 38.4 0 0 0 0 0 0 144 140.8 211.2 323.2 252.8 528 0 3.2 3.2 9.6 3.2 12.8 3.2 6.4 6.4 12.8 6.4 19.2zM473.6 816h64v16c0 35.2 28.8 64 64 64v64c-70.4 0-128-57.6-128-128v-16z" />
<glyph unicode="&#xe921;" glyph-name="pediatric_dentist_1" d="M512 320.399c-35.090 0-51.041-31.9-63.801-63.801-22.33-70.181-51.041-140.361-66.991-264.773 0-3.19 0-3.19 0-6.38v0c0 0 0 0 0 0-6.38-28.71-31.9-47.85-60.611-47.85-35.090 0-63.801 28.71-63.801 63.801-60.611 299.863-118.031 414.704-207.352 555.065 0 3.19-3.19 3.19-3.19 6.38-28.71 38.28-44.66 86.131-44.66 140.361 0 140.361 114.841 255.203 255.203 255.203 47.85 0 89.321-12.76 127.601-35.090 0 0 0 0 0 0 38.28-22.33 79.751-35.090 127.601-35.090s89.321 12.76 127.601 35.090c0 0 0 0 0 0 38.28 22.33 79.751 35.090 127.601 35.090 140.361 0 255.203-114.841 255.203-255.203 0-54.231-15.95-102.081-44.66-143.551 0-3.19-3.19-3.19-3.19-6.38-92.511-140.361-153.122-255.203-210.542-555.065 0-35.090-28.71-63.801-63.801-63.801-28.71 0-54.231 22.33-60.611 47.85 0 0 0 0 0 0v0c0 3.19 0 3.19 0 6.38-15.95 124.411-41.47 194.592-63.801 264.773-12.76 35.090-28.71 66.991-63.801 66.991zM384.399 767.003c-35.090 0-63.801-28.71-63.801-63.801s28.71-63.801 63.801-63.801 63.801 28.71 63.801 63.801-28.71 63.801-63.801 63.801zM639.601 767.003c-35.090 0-63.801-28.71-63.801-63.801s28.71-63.801 63.801-63.801 63.801 28.71 63.801 63.801-28.71 63.801-63.801 63.801zM320.598 575.601c0-105.271 86.131-191.402 191.402-191.402s191.402 86.131 191.402 191.402h-382.804z" />
<glyph unicode="&#xe922;" glyph-name="pediatric_dentist_2" d="M1024 534.4c0 3.2 0 6.4 0 9.6 0 6.4 0 12.8 0 19.2 0 150.4-121.6 268.8-268.8 268.8h-121.6c-19.2-48-64-83.2-118.4-83.2s-99.2 35.2-118.4 83.2h-124.8c-150.4 0-272-121.6-272-268.8 0-9.6 0-19.2 0-28.8 0 0 0 0 0 0s0 0 0 0c3.2-16 6.4-35.2 9.6-51.2 41.6-195.2 108.8-368 246.4-505.6 22.4-25.6 57.6-41.6 92.8-41.6h41.6c22.4 22.4 86.4 35.2 118.4 35.2s96-12.8 118.4-35.2h44.8c35.2 0 67.2 12.8 89.6 38.4 0 0 0 0 0 0 144 140.8 211.2 323.2 252.8 528 0 3.2 3.2 9.6 3.2 12.8 3.2 6.4 6.4 12.8 6.4 19.2zM473.6 816h64v16c0 35.2 28.8 64 64 64v64c-70.4 0-128-57.6-128-128v-16z" />
<glyph unicode="&#xe923;" glyph-name="pediatric_dentist_3" d="M880.64 54.154c-78.769 0-141.785 63.015-141.785 141.785 0 72.468 69.317 179.594 135.483 280.418 56.714 85.071 116.578 176.443 116.578 223.705 0 56.714-44.111 100.825-100.825 100.825s-100.825-44.111-100.825-100.825v-15.754h-44.111l3.151 31.508h9.452c6.302 66.166 63.015 116.578 132.332 116.578 72.468 0 132.332-59.865 132.332-132.332 0-59.865-59.865-148.086-119.729-242.609-63.015-97.674-132.332-198.498-132.332-261.514 0-59.865 50.412-110.277 110.277-110.277s110.277 50.412 110.277 110.277h31.508c0-78.769-63.015-141.785-141.785-141.785zM193.772 731.569l47.262-63.015h277.268l47.262 63.015h182.745l6.302 94.523c0 69.317-56.714 126.031-126.031 126.031h-504.123c-69.317 0-126.031-56.714-126.031-126.031l9.452-94.523h185.895zM543.508 470.055h-330.831c-18.905 0-34.658-15.754-34.658-34.658s15.754-34.658 34.658-34.658h330.831c18.905 0 34.658 15.754 34.658 34.658s-15.754 34.658-34.658 34.658zM606.523 668.554l-47.262-63.015h-362.338l-47.262 63.015h-138.634l50.412-661.662c0-34.658 28.357-63.015 63.015-63.015h504.123c34.658 0 63.015 28.357 63.015 63.015l50.412 661.662h-135.483zM543.508 369.231h-330.831c-37.809 0-66.166 28.357-66.166 66.166s28.357 66.166 66.166 66.166h330.831c37.809 0 66.166-28.357 66.166-66.166s-31.508-66.166-66.166-66.166z" />
<glyph unicode="&#xe924;" glyph-name="pediatric_dentist_4" d="M4.785 703.203c0 140.361 105.271 255.203 239.252 255.203 130.791 0 526.355-63.801 599.726-63.801 66.991 0 95.701 19.14 114.841 63.801 0-140.361-105.271-255.203-239.252-255.203-130.791 0-526.355 63.801-599.726 63.801-66.991 0-98.891-19.14-114.841-63.801zM990.505-62.405h-861.309c-70.181 0-127.601 57.421-127.601 127.601v0c0 70.181 57.421 127.601 127.601 127.601h784.748c9.57 0 15.95-3.19 15.95-12.76 0 0 0-38.28 0-41.47 0-6.38 3.19-9.57 9.57-9.57s54.231 0 54.231 0c19.14 0 31.9-12.76 31.9-31.9v-127.601c-3.19-19.14-15.95-31.9-35.090-31.9zM767.203 556.461l-95.701 51.041-95.701-51.041-95.701 51.041-95.701-51.041-95.701 51.041-95.701-51.041-95.701 51.041v-350.903h79.751v98.891h31.9v-98.891h63.801v98.891h31.9v-98.891h63.801v98.891h31.9v-98.891h63.801v98.891h31.9v-98.891h63.801v98.891h31.9v-98.891h63.801v98.891h31.9v-98.891h63.801v98.891h31.9v-98.891h79.751v350.903z" />
<glyph unicode="&#xe925;" glyph-name="periodontics_1" d="M512 320.399c-35.090 0-51.041-31.9-63.801-63.801-22.33-70.181-51.041-140.361-66.991-264.773 0-3.19 0-3.19 0-6.38v0c0 0 0 0 0 0-6.38-28.71-31.9-47.85-60.611-47.85-35.090 0-63.801 28.71-63.801 63.801-60.611 299.863-118.031 414.704-207.352 555.065 0 3.19-3.19 3.19-3.19 6.38-28.71 38.28-44.66 86.131-44.66 140.361 0 140.361 114.841 255.203 255.203 255.203 47.85 0 89.321-12.76 127.601-35.090 0 0 0 0 0 0 38.28-22.33 79.751-35.090 127.601-35.090s89.321 12.76 127.601 35.090c0 0 0 0 0 0 38.28 22.33 79.751 35.090 127.601 35.090 140.361 0 255.203-114.841 255.203-255.203 0-54.231-15.95-102.081-44.66-143.551 0-3.19-3.19-3.19-3.19-6.38-92.511-140.361-153.122-255.203-210.542-555.065 0-35.090-28.71-63.801-63.801-63.801-28.71 0-54.231 22.33-60.611 47.85 0 0 0 0 0 0v0c0 3.19 0 3.19 0 6.38-15.95 124.411-41.47 194.592-63.801 264.773-12.76 35.090-28.71 66.991-63.801 66.991zM677.882 747.863l-28.71 57.421c0 0-63.801-31.9-137.171-31.9s-137.171 31.9-137.171 31.9l-28.71-57.421c3.19 0 76.561-38.28 165.882-38.28s162.692 35.090 165.882 38.28z" />
<glyph unicode="&#xe926;" glyph-name="periodontics_2" d="M2.033 642.359h-2.177c0 45.453 34.282 79.702 79.702 79.702v-2.177c-44.172 0-77.494-33.321-77.494-77.494zM1023.824 642.359h-2.177c0 44.172-33.321 77.494-77.494 77.494v2.177c45.453 0 79.702-34.25 79.702-79.702zM771.241 364.649c-2.625 0-2.625 2.625 0 5.217 41.9 13.124 86.456 41.932 120.514 70.772 26.183 60.241 41.932 123.139 41.932 188.629-128.42-52.399-267.243-78.614-419.221-78.614-151.947 0-293.426 28.808-419.189 78.614 0-62.898 15.748-125.763 39.307-186.036 34.058-28.808 78.614-60.241 123.139-73.365 2.625 0 2.625-5.217 0-5.217-26.215 0-70.74-2.657-81.207 2.625 75.989-115.296 199.128-199.128 337.982-199.128s259.369 83.864 337.982 199.128c-18.373-5.249-57.68-2.625-81.239-2.625zM514.465 167.026c-129.829 0-256.488 74.645-338.91 199.608l-2.241 3.425 3.681-1.857c5.666-2.817 22.214-3.137 34.186-3.137 8.226 0 16.901 0.16 25.319 0.352 7.682 0.16 14.948 0.32 21.19 0.32 0.704 0 0.864 1.088 0.864 1.504s-0.128 1.504-0.864 1.504l-0.32 0.032c-37.226 10.947-78.774 35.69-123.555 73.557l-0.224 0.192-0.096 0.256c-26.503 67.699-39.371 128.676-39.371 186.42v1.632l1.504-0.608c131.621-52.111 272.524-78.518 418.805-78.518 152.363 0 289.328 25.703 418.805 78.518l1.504 0.608v-1.632c0-62.226-13.732-124.067-42.028-189.077l-0.128-0.224-0.192-0.16c-39.403-33.321-83.351-59.153-120.642-70.836-1.312-1.408-1.568-2.529-1.408-2.913 0.096-0.256 0.608-0.288 0.832-0.288 5.538 0 11.939-0.16 18.757-0.32 7.778-0.16 15.844-0.352 23.815-0.352 18.405 0 30.601 1.024 38.315 3.201l2.945 0.832-1.728-2.529c-86.424-126.82-209.947-199.608-338.814-199.608zM179.235 365.097c82.039-122.723 207.098-195.895 335.229-195.895 127.332 0 249.446 71.476 335.421 196.247-7.938-1.76-19.558-2.593-36.074-2.593-8.002 0-16.069 0.192-23.879 0.384-6.786 0.128-13.188 0.288-18.693 0.288-1.376 0-2.433 0.608-2.881 1.632-0.64 1.504 0.16 3.585 2.081 5.506l0.192 0.192 0.256 0.096c37.002 11.555 80.695 37.194 119.938 70.356 27.848 64.082 41.484 125.059 41.74 186.324-129.252-52.527-266.027-78.070-418.101-78.070-145.993 0-286.64 26.247-418.101 78.102 0.256-56.88 13.060-117.025 39.115-183.732 44.396-37.515 85.56-62.065 122.37-72.917 1.696-0.096 2.881-1.632 2.881-3.713 0-2.145-1.28-3.745-3.041-3.745-6.242 0-13.508-0.128-21.158-0.32-8.418-0.16-17.125-0.352-25.351-0.352-16.005 0.032-26.183 0.704-31.945 2.241z" />
<glyph unicode="&#xe927;" glyph-name="periodontics_3" d="M956.111 521.547c-11.315 0-31.116-48.088-31.116-99.006v-144.265c31.116 11.315 53.746 19.801 65.061 22.63v118.807c-2.829 53.746-22.63 101.834-33.945 101.834zM834.475 507.403c-28.287 0-62.232-56.575-62.232-110.32v-152.751c48.088 8.486 90.519 19.801 124.464 28.287v124.464c-2.829 50.917-33.945 110.32-62.232 110.32zM633.635 507.403c-50.917 0-107.492-87.691-107.492-144.265v-147.094c82.033 0 155.58 8.486 217.812 19.801v141.436c0 53.746-56.575 130.122-110.32 130.122zM101.834 419.713c0 53.746-22.63 99.006-31.116 99.006s-33.945-45.26-33.945-99.006v-118.807c11.315-5.657 33.945-14.144 65.061-22.63v141.436zM390.365 507.403c-53.746 0-107.492-76.376-107.492-127.293v-141.436c65.061-11.315 138.608-19.801 217.812-19.801v144.265c-2.829 56.575-62.232 144.265-110.32 144.265zM251.757 397.083c0 53.746-31.116 110.32-62.232 110.32-28.287 0-62.232-56.575-62.232-110.32v-124.464c33.945-8.486 76.376-19.801 124.464-28.287v152.751zM961.768 674.298c-82.033-28.287-240.442-70.718-449.768-70.718-203.669 0-364.906 45.26-449.768 73.547-31.116 11.315-62.232-14.144-62.232-50.917v-166.895c0-8.486 2.829-14.144 8.486-19.801 5.657 50.917 25.459 110.32 59.403 110.32 25.459 0 42.431-33.945 53.746-70.718 16.972 31.116 39.602 53.746 67.89 53.746 39.602 0 67.89-42.431 82.033-84.862 25.459 45.26 70.718 84.862 115.978 84.862 50.917 0 99.006-53.746 121.635-110.32 22.63 56.575 73.547 110.32 121.635 110.32s93.348-39.602 115.978-84.862c14.144 45.26 42.431 84.862 82.033 84.862 31.116 0 53.746-25.459 67.89-53.746 8.486 36.773 28.287 70.718 53.746 70.718 33.945 0 56.575-59.403 59.403-110.32 5.657 5.657 8.486 11.315 8.486 19.801v164.066c5.657 36.773-25.459 62.232-56.575 50.917z" />
<glyph unicode="&#xe928;" glyph-name="periodontics_4" d="M4.785 703.203c0 140.361 105.271 255.203 239.252 255.203 130.791 0 526.355-63.801 599.726-63.801 66.991 0 95.701 19.14 114.841 63.801 0-140.361-105.271-255.203-239.252-255.203-130.791 0-526.355 63.801-599.726 63.801-66.991 0-98.891-19.14-114.841-63.801zM990.505-62.405h-861.309c-70.181 0-127.601 57.421-127.601 127.601v0c0 70.181 57.421 127.601 127.601 127.601h784.748c9.57 0 15.95-3.19 15.95-12.76 0 0 0-38.28 0-41.47 0-6.38 3.19-9.57 9.57-9.57s54.231 0 54.231 0c19.14 0 31.9-12.76 31.9-31.9v-127.601c-3.19-19.14-15.95-31.9-35.090-31.9zM767.203 556.461l-95.701 51.041-95.701-51.041-95.701 51.041-95.701-51.041-95.701 51.041-95.701-51.041-95.701 51.041v-350.903h79.751v98.891h31.9v-98.891h63.801v98.891h31.9v-98.891h63.801v98.891h31.9v-98.891h63.801v98.891h31.9v-98.891h63.801v98.891h31.9v-98.891h63.801v98.891h31.9v-98.891h63.801v98.891h31.9v-98.891h79.751v350.903z" />
<glyph unicode="&#xe929;" glyph-name="podiatry_1" d="M597.948 409.801c54.116 9.55 85.948 47.749 92.315 89.132 15.916 114.598-92.315 206.913-206.913 206.913s-206.913-92.315-206.913-206.913c0-28.649-3.183-54.116 3.183-82.765 12.733-70.032 19.1-92.315 35.016-143.247 28.649-89.132 38.199-149.614 57.299-203.73 25.466-66.849 57.299-127.331 127.331-127.331s127.331 57.299 127.331 127.331c0 9.55 0 19.1-3.183 28.649v0 0c-6.367 31.833-73.215 57.299-105.048 111.415-44.566 66.849-31.833 175.080 79.582 200.546zM812.17 808.248c-15.935-68.495-70.497-114.332-121.869-102.381s-80.098 77.166-64.161 145.66c15.935 68.495 70.497 114.332 121.869 102.381s80.098-77.166 64.161-145.66zM597.948 862.748c-1.61-42.164-28.553-75.365-60.176-74.157s-55.953 36.368-54.343 78.533c1.61 42.164 28.553 75.365 60.176 74.157s55.953-36.368 54.343-78.533zM450.713 853.846c5.882-32.882-8.99-63.053-33.219-67.387s-48.64 18.809-54.521 51.691c-5.882 32.882 8.99 63.053 33.219 67.387s48.64-18.809 54.521-51.691zM331.854 807.497c15.173-25.748 12.741-55.303-5.434-66.014s-45.209 1.48-60.383 27.227c-15.173 25.748-12.741 55.303 5.434 66.014s45.209-1.48 60.383-27.227zM262.478 722.303c14.642-15.187 17.276-36.401 5.886-47.382s-32.493-7.571-47.135 7.616c-14.642 15.187-17.276 36.401-5.886 47.382s32.493 7.571 47.135-7.616z" />
<glyph unicode="&#xe92a;" glyph-name="podiatry_2" d="M0 246.4h1024v-64h-1024v64zM1020.8 374.4c-9.6 76.8-57.6 99.2-124.8 115.2-70.4 16-131.2 6.4-188.8 48-32 25.6-64 44.8-92.8 60.8l-41.6-70.4-28.8 19.2 41.6 70.4c-22.4 12.8-44.8 25.6-67.2 38.4l-44.8-70.4-25.6 12.8 41.6 70.4c-28.8 16-54.4 28.8-80 44.8-35.2-48-96-99.2-166.4-105.6-86.4-9.6-169.6-3.2-227.2 22.4-9.6-41.6-16-83.2-16-124.8 0-92.8 0-118.4 19.2-195.2h1001.6c3.2 32 3.2 35.2 0 64z" />
<glyph unicode="&#xe92b;" glyph-name="podiatry_3" d="M1017.64 457.54c-22.261 50.882-31.801 104.944-31.801 162.186 0 50.882 9.54 244.87 9.54 244.87h-241.689l-114.484-3.18c0 0 12.72-117.665 3.18-178.087-9.54-73.143-22.261-146.286-127.205-159.006-133.565-15.901-171.727-50.882-292.571-95.404-15.901-6.36-63.602-19.081-79.503-19.081-9.54 0-44.522 6.36-76.323 12.72v0c-3.18 0-6.36 0-9.54 0-38.161 0-57.242-31.801-57.242-66.783 0-38.161 31.801-66.783 66.783-66.783h31.801c28.621 0 57.242 0 82.683 9.54 6.36 3.18 15.901 3.18 22.261 3.18 9.54 0 15.901 0 22.261-3.18 15.901-6.36 31.801-12.72 50.882-12.72h28.621c12.72 0 22.261 0 31.801 3.18 82.683 19.081 168.547 31.801 257.59 31.801 85.863 0 171.727-9.54 254.41-28.621v0h3.18c9.54-3.18 19.081-3.18 28.621-3.18 76.323 0 136.745 60.422 136.745 136.745 3.18 9.54 0 22.261 0 31.801zM12.72 34.584h982.659c6.36 0 12.72 6.36 12.72 15.901l12.72 69.963c3.18 15.901-3.18 34.981-15.901 34.981-162.186 6.36-254.41 69.963-359.354 69.963-111.304 0-279.851-120.845-464.298-120.845h-168.547c-6.36 0-9.54-6.36-9.54-15.901v-38.161c0-9.54 3.18-15.901 9.54-15.901z" />
<glyph unicode="&#xe92c;" glyph-name="podiatry_4" d="M521.63 98.108l121.981 109.141c-12.84 6.42-25.68 12.84-41.73 16.050v51.36c-28.89-9.63-57.781-16.050-89.881-16.050s-60.991 6.42-89.881 16.050v-51.36c-12.84-3.21-28.89-9.63-41.73-16.050l141.241-109.141zM816.952 59.587c-19.26 25.68-73.831 86.671-147.661 131.611l-182.972-166.922-22.47 22.47 28.89 28.89-138.031 115.561c-73.831-44.94-125.191-105.931-147.661-131.611-6.42-6.42-3.21-16.050 3.21-19.26 35.31-28.89 121.981-102.721 301.742-102.721 182.972 0 263.222 70.621 301.742 102.721 6.42 3.21 9.63 12.84 3.21 19.26zM723.862 46.747h-41.73v-41.73h-32.1v41.73h-41.73v32.1h41.73v41.73h32.1v-41.73h41.73v-32.1zM357.919 316.389c-48.15 41.73-80.251 105.931-80.251 176.552v221.492l19.26 9.63c3.21 3.21 115.561 57.781 215.072 57.781 93.091 0 211.862-54.571 215.072-57.781l19.26-9.63v-221.492c0-70.621-32.1-134.821-80.251-176.552v-54.571c80.251 12.84 157.292 38.52 227.912 73.831 0 0-54.571 12.84-54.571 54.571v243.962c-3.21 179.762-147.661 327.422-327.422 327.422s-324.212-144.451-324.212-324.212v-243.962c0-38.52-54.571-54.571-54.571-54.571 70.621-35.31 147.661-60.991 227.912-73.831l-3.21 51.36zM682.132 675.912c-35.31 12.84-109.141 41.73-170.132 41.73-64.201 0-138.031-28.89-170.132-41.73v-182.972c0-93.091 77.041-170.132 170.132-170.132s170.132 77.041 170.132 170.132v182.972z" />
<glyph unicode="&#xe92d;" glyph-name="arrow-left" horiz-adv-x="320" d="M112.117 188.92c-62.055 136.074-112.117 252.515-112.117 259.049s50.061 123.006 112.117 259.049l111.012 247.085h48.988c42.454 0 47.884-2.178 41.35-20.675-3.282-10.89-52.239-120.828-108.835-245.981-56.595-124.080-103.405-231.84-103.405-239.447s46.81-115.368 103.405-239.447c56.595-125.184 105.583-235.091 108.835-245.981 6.534-18.497 1.074-20.675-41.35-20.675h-48.988l-111.012 247.085z" />
<glyph unicode="&#xe92e;" glyph-name="arrow-right" horiz-adv-x="320" d="M207.884 188.921c62.055 136.074 112.117 252.514 112.117 259.048s-50.061 123.006-112.117 259.048l-111.012 247.084h-48.988c-42.454 0-47.884-2.178-41.35-20.675 3.282-10.89 52.239-120.828 108.835-245.98 56.595-124.080 103.405-231.839 103.405-239.446s-46.81-115.368-103.405-239.446c-56.595-125.184-105.583-235.090-108.835-245.98-6.534-18.497-1.074-20.675 41.35-20.675h48.988l111.012 247.084z" />
<glyph unicode="&#xe92f;" glyph-name="volume-mute" horiz-adv-x="942" d="M601.58 603.821l230.766 214.384c7.006 6.508 17.33 5.904 23.595-0.852l79.655-85.905c6.407-6.91 5.859-17.329-0.908-23.615l-797.074-740.49c-7.005-6.508-17.33-5.904-23.595 0.852l-79.655 85.905c-6.407 6.91-5.859 17.329 0.908 23.615l194.467 180.661h-179.613c-27.416 0-50.132 22.716-50.132 50.132v300.792c0 27.416 22.716 50.132 50.132 50.132h205.229l260.843 260.843c9.4 9.4 21.933 14.883 35.249 14.883 27.416 0 50.132-22.716 50.132-50.132v-281.21zM601.58 231.99v-199.206c0-27.416-22.716-50.132-50.132-50.132-13.316 0-25.849 5.484-35.249 14.883l-80.422 80.422 165.804 154.033z" />
<glyph unicode="&#xe930;" glyph-name="infinity-shape" d="M1019.679 483.667c-2.47 19.763-16.058 36.748-33.042 47.247-16.676 10.499-36.439 15.44-56.203 18.22-54.041 8.029-108.082 2.779-160.888-9.573-50.953-12.043-100.671-30.572-146.683-55.585-3.088-1.544-5.867-3.397-8.955-5.25-1.544-0.926-3.397-1.853-4.941-2.779s-4.632-2.779-6.176-3.706c-3.397-1.853-6.794-3.706-10.191-5.559-19.455 8.338-38.909 16.676-58.364 25.013-14.205 6.176-28.719 11.426-42.924 17.602-8.955 3.397-17.602 6.794-26.557 9.882 20.69 10.191 41.998 19.455 63.923 27.484 25.013 8.955 50.335 16.367 76.275 21.616 27.175 5.867 54.967 8.647 82.76 7.72 5.25-0.309 10.499-0.309 15.749-0.926 12.352-1.235 24.396-3.088 36.439-5.559 4.323-0.926 4.323-0.926 7.102-3.397 2.47-1.853 3.706-4.632 6.176-6.485 3.088-2.779 8.029-4.941 12.352-4.632 4.632 0 8.029 1.544 8.955 5.559 1.853 8.338-5.867 15.44-12.661 19.146-5.559 3.088-12.043 4.632-18.22 5.867-27.484 5.25-55.894 4.014-83.377 0.309-27.175-3.706-54.35-9.573-80.598-16.984-25.94-7.411-51.57-15.749-76.584-25.94-16.058-6.176-31.498-13.279-46.938-20.69-18.837 6.485-37.674 12.352-56.511 18.22-1.235 0.309-13.896 3.088-14.823 3.397-9.573 2.47-22.852 6.176-24.705 6.485-13.587 3.088-26.866 5.867-40.762 8.338-27.175 4.941-54.659 8.647-82.142 10.499-39.218 2.779-78.745 2.162-117.655-3.706-28.41-4.323-57.438-11.426-80.289-28.719s-39.218-46.321-33.351-74.422c4.323-21.616 20.69-39.527 40.145-50.027s41.689-14.205 63.614-15.749c9.573-0.618 18.837-0.926 28.41-0.618 1.235-5.25 2.779-10.191 4.941-15.131 10.808-22.543 30.263-36.748 52.497-46.938 18.837-8.955 39.527-14.205 60.526-16.058 37.983-3.088 76.275 4.632 112.096 17.602 40.145 14.514 78.128 34.895 114.876 56.203l3.088-1.235c22.852-9.264 46.012-19.146 69.173-28.101 38.292-14.823 77.201-27.484 116.728-38.601 39.527-10.808 81.216-18.528 122.287-17.602 30.881 0.926 62.070 7.411 89.245 22.543 10.191 5.559 19.763 12.661 27.175 21.308 5.867 6.485 9.264 13.587 12.352 21.308 18.837 4.014 37.057 11.426 52.806 22.852 0.926 0.618 1.544 1.235 2.47 1.853 25.631 19.146 45.703 54.967 41.38 87.701zM525.278 453.712c8.338-3.088 16.676-6.485 25.013-9.882-14.514-7.72-29.028-15.44-43.85-22.852l-5.559 2.162-16.676 7.411c-37.366 15.131-75.349 27.484-113.949 39.218 0.926 0.618 2.162 1.235 3.088 1.853l18.528 10.499 10.191 5.559 10.808 5.559 7.72 4.323c9.573-4.014 19.146-8.029 28.719-12.043 25.322-10.808 50.335-21.925 75.966-31.807zM87.698 417.891c-22.234 3.706-44.468 10.808-58.364 29.645-10.499 14.205-13.896 34.586-5.25 50.335 4.941 8.955 13.587 15.749 22.543 20.69 14.514 8.338 30.881 12.97 47.247 16.367 27.484 5.867 55.894 7.72 84.304 8.029 54.967 0.309 109.626-5.867 163.049-19.146 12.352-3.088 24.705-6.485 36.748-10.191v0c2.162-0.618 4.323-1.235 4.323-1.235 3.397-1.235 7.102-2.47 10.499-3.706 6.485-2.47 12.661-4.941 19.146-7.411 0.309 0 0.309-0.309 0.618-0.309-13.896-7.411-27.792-15.44-41.998-22.234-4.014-1.853-8.338-4.014-12.352-5.867l-1.853 0.618-12.661 3.397c0 0-12.352 2.779-12.352 2.779-40.454 7.72-82.142 15.131-123.213 7.72-12.043-2.162-24.087-5.559-34.586-11.735-21.616-12.043-35.204-36.13-36.748-60.526-16.676-0.309-33.042 0.309-49.1 2.779zM322.084 457.418c-7.411-3.088-15.131-5.867-22.852-8.647-45.394-16.367-92.333-27.792-140.506-32.116-3.088-0.309-5.867-0.618-8.955-0.618 0.309 7.411 2.779 14.823 8.338 21.308 8.029 9.573 19.763 15.131 31.498 19.146 16.367 5.25 33.66 7.72 50.644 8.338 22.852 1.235 46.012-0.309 68.555-4.323 4.632-1.235 8.955-2.162 13.279-3.088zM318.069 344.395c-0.309 0-0.618 0-0.618-0.309-20.69-5.25-41.998-9.573-63.305-9.882s-43.233 4.014-62.070 14.514c-15.131 8.647-28.101 21.616-35.204 37.366-1.544 3.397-2.779 6.485-4.014 9.882 36.439 2.162 72.26 9.882 106.847 21.616 27.484 9.264 53.732 21.308 79.054 34.586 9.573-3.088 18.837-6.794 28.41-11.117 27.484-12.352 54.967-25.013 82.76-36.439l12.97-5.559c-46.321-21.616-94.495-41.689-144.83-54.659zM887.819 346.866c-8.338-6.794-17.911-11.735-27.792-14.823-18.22-5.867-37.983-6.176-57.129-4.941-3.706 0.309-7.411 0.618-11.117 0.926-11.117 1.235-21.925 2.47-33.042 4.632-40.762 7.102-79.981 19.763-118.581 33.66-37.674 13.587-75.040 28.719-111.479 45.394 0 0-5.25 2.47-5.25 2.47l-0.926 0.309c13.896 8.338 27.484 16.367 41.38 24.396l20.381-7.411 22.543-8.029c0 0 22.543-8.029 22.543-8.029 49.409-17.602 100.979-31.498 152.241-40.454 14.514-2.47 29.337-4.632 44.159-6.176 25.322-2.779 52.806-4.014 79.054-0.618-4.632-8.029-9.573-15.131-16.984-21.308zM1006.709 450.316c-6.794-36.13-44.468-55.276-80.289-62.996 0 10.191-0.618 19.455-3.706 29.028-3.397 10.808-8.338 20.999-14.823 30.263-21.308 31.189-56.511 52.806-94.186 57.129-10.808 1.235-22.234 1.235-32.733-2.162-12.352-3.706-21.925-11.735-27.792-23.469-3.706-7.411-5.867-15.44-6.176-23.469-0.309-5.867 0.618-11.735 4.014-16.676 2.779-4.014 7.411-7.102 12.043-8.029 2.779-0.618 5.867-0.309 8.647 0.618 6.176 2.162 11.117 8.338 11.426 14.823 0 2.779-0.618 5.559-2.47 7.411-1.544 1.544-3.397 2.779-5.867 3.397s-5.559 1.544-8.338 0.926v0c-1.544 23.469 10.808 31.807 16.676 34.277 6.794 2.47 14.205 4.014 21.616 4.014 15.131 0.309 29.954-3.706 43.85-9.882 18.837-8.338 36.439-20.381 48.483-37.057 7.72-10.499 12.97-23.16 14.514-36.13 1.235-9.573 0-18.837-1.853-28.41-5.25-0.618-10.191-0.926-15.131-1.235-0.618 0-0.926 0-1.544 0-15.749-0.309-31.807 1.544-47.247 4.014-53.732 8.338-106.229 23.778-157.8 41.689-28.41 9.882-56.203 20.999-83.995 32.733 0.926 0.309 1.544 0.926 2.47 1.235l9.882 5.25c44.777 22.543 89.862 42.924 137.727 57.129 49.718 14.823 103.141 20.381 154.403 12.661 1.235-0.309 2.779-0.309 4.014-0.618 21.925-3.706 43.542-9.573 62.070-21.616 7.102-4.632 13.896-10.191 19.146-16.676 11.735-12.661 16.058-31.189 12.97-48.174z" />
<glyph unicode="&#xe931;" glyph-name="blogger_2" d="M973.396 574.677h-83.2c-42.667 0-50.56 32.597-50.56 72.832 0.043 172.587-139.605 312.49-311.807 312.49h-215.979c-172.245 0-311.85-139.904-311.85-312.49v-399.018c0-172.587 139.605-312.49 311.85-312.49h400.34c172.203 0 311.807 139.904 311.807 312.49v275.499c0 28.032-22.656 50.688-50.603 50.688zM315.136 704h180.437c32.64 0 59.093-28.629 59.093-64s-26.453-64-59.136-64h-180.395c-32.683 0-59.136 28.629-59.136 64s26.453 64 59.136 64zM704.853 192h-385.706c-34.859 0-63.147 28.672-63.147 64 0 35.413 28.288 64 63.147 64h385.663c34.859 0 63.147-28.587 63.147-64 0.043-35.328-28.245-64-63.104-64z" />
<glyph unicode="&#xe932;" glyph-name="chiro_1" d="M308.892 320.069c6.604-30.156 21.606-124.241 11.725-196.778 0-0.024-0.024-0.024-0.024-0.047v-0.047c0 0 0 0 0-0.024-1.843-13.96-6.245-23.259-13.519-38.623-12.371-26.161-22.396-46.495-26.105-54.058l-1.292-2.616c-7.561-15.411-12.060-31.726-15.649-78.15-0.598-7.801-7.154-13.723-14.907-13.723-0.383 0-0.766 0-1.149 0.047-8.231 0.618-14.381 7.753-13.758 15.934 3.541 45.877 8.040 67.472 18.544 88.899l1.34 2.712c3.685 7.468 13.639 27.636 25.914 53.607 7.226 15.244 9.763 20.953 10.934 29.919 0 0 0.024 0.024 0.024 0.047v0.024c9.308 68.28-5.001 157.798-11.317 186.528-0.502 2.307-1.005 4.59-1.483 6.85-3.326-6.207-7.37-12.177-12.083-17.814 0.024-6.35 0.024-14.484-0.047-23.854-0.191-31.845-1.077-59.196-1.46-66.473-1.986-39.669-17.395-73.583-38.715-120.531-27.708-61.003-41.634-91.635-61.16-119.056-2.488-3.496-9.117-12.819-13.328-26.352-1.962-6.397-7.897-10.488-14.285-10.488-1.436 0-2.919 0.19-4.403 0.643-7.897 2.426-12.298 10.75-9.882 18.598 5.623 18.075 14.548 30.632 17.491 34.77 17.85 25.091 31.369 54.843 58.311 114.134 20.697 45.592 34.408 75.701 36.107 109.781 0.359 7.112 1.22 33.938 1.411 65.141 0.096 12.295 0.047 22.427 0 29.134-0.024 3.805 1.411 7.444 3.996 10.203 7.561 8.134 12.992 17.124 16.199 26.732 2.464 7.516 2.871 13.2 3.541 22.665l0.79 10.488c1.483 16.648 4.259 33.724 8.279 50.728 1.771 7.491 8.925 12.486 16.726 11.297 7.68-1.117 13.232-7.895 12.753-15.601-1.124-18.455-0.67-36.84 1.364-54.629 2.034-17.814 5.312-32.725 9.117-50.015zM416.191 959.996c8.255-0.095 14.859-6.85 14.764-15.054l-0.694-51.037c0.479-5.946-0.143-13.128-1.915-20.096-1.196-4.614-5.144-16.672-16.367-29.942-9.834-11.63-25.077-21.214-46.539-29.301-14.739-5.565-25.172-7.634-38.404-10.251l-8.208-1.665c-32.135-6.611-48.262-9.917-61.375-15.339-35.581-14.698-55.464-46.019-60.705-55.27-11.94-21.095-14.237-39.48-18.376-72.847-3.541-28.586-2.8-54.439-2.392-68.328 0.43-13.295 1.149-21.214 1.747-27.636 0.79-8.491 1.436-15.197 0.718-27.493-0.981-17.171-3.445-25.899-6.054-35.15-2.105-7.444-4.283-15.126-6.412-29.396-4.307-28.896-3.422-52.679-2.297-82.811 0.622-17.29 1.938-34.532 3.852-51.442 0.502-4.376-0.981-8.752-4.044-11.939-2.704-2.83-6.437-6.873-10.6-11.915-18.999-22.927-32.829-47.923-41.131-74.345-6.245-19.858-8.063-36.601-11.7-69.945-2.154-19.835-2.656-31.941-3.086-42.309-0.526-13.105-0.981-24.425-4.45-44.069-0.551-2.997-0.622-3.401-2.847-12.010-1.89-7.325-5.48-21.19-12.658-49.753l-1.555-6.112c-10.672-42.499-13.208-52.607-22.587-66.949-2.871-4.376-7.657-6.778-12.538-6.778-2.8 0-5.623 0.785-8.135 2.402-6.939 4.472-8.901 13.675-4.403 20.572 6.412 9.799 8.016 15.601 18.64 57.959l1.555 6.136c7.226 28.634 10.815 42.571 12.706 49.92 1.819 7.016 1.915 7.325 2.345 9.775 3.135 17.67 3.518 27.088 4.044 40.098 0.455 10.869 0.981 23.568 3.207 44.117 3.756 34.366 5.814 53.178 12.921 75.819 9.451 30.109 25.124 58.481 46.587 84.381 2.632 3.163 5.073 5.97 7.274 8.396-1.603 15.459-2.704 31.156-3.278 46.733-1.196 31.821-2.105 56.841 2.609 88.448 2.417 16.124 5.073 25.519 7.202 33.058 2.417 8.633 4.188 14.865 4.977 28.777 0.574 10.084 0.119 14.983-0.622 23.093-0.646 6.85-1.436 15.292-1.866 29.491-0.407 13.651-1.245 42 2.584 72.799 4.307 34.723 7.154 57.65 22.013 83.834 8.255 14.555 32.111 50.301 75.276 68.161 15.745 6.492 32.804 9.989 66.782 16.981l8.423 1.688c12.777 2.545 21.248 4.233 33.666 8.919 16.343 6.16 27.876 13.105 34.24 20.643 7.825 9.251 10.049 17.219 10.265 18.123 0.981 3.829 1.34 7.872 1.053 11.915l0.646 52.274c0.096 8.157 6.772 14.674 14.954 14.674h0.191zM996.207-36.232c4.499-6.897 2.513-16.101-4.426-20.548-2.513-1.617-5.312-2.402-8.112-2.402-4.905 0-9.691 2.402-12.562 6.778-9.332 14.341-11.868 24.425-22.564 66.877l-1.555 6.183c-7.178 28.539-10.768 42.429-12.658 49.753-2.226 8.61-2.321 9.014-2.847 12.010-3.469 19.621-3.948 30.965-4.475 44.046-0.43 10.37-0.909 22.498-3.063 42.143-3.637 33.534-5.48 50.277-11.725 70.135-8.279 26.375-22.109 51.394-41.108 74.345-4.188 5.018-7.92 9.085-10.624 11.915-3.039 3.186-4.522 7.563-4.020 11.915 1.915 17.004 3.207 34.27 3.852 51.299 1.124 30.156 2.009 53.963-2.321 82.978-2.13 14.246-4.307 21.952-6.389 29.371-2.632 9.251-5.097 18.004-6.054 35.15-0.718 12.32-0.096 19.050 0.694 27.564 0.598 6.397 1.34 14.317 1.747 27.588 0.407 13.889 1.173 39.741-2.345 68.256-4.163 33.415-6.461 51.799-18.425 72.917-5.24 9.228-25.124 40.549-60.705 55.27-13.088 5.399-29.216 8.728-61.35 15.316l-8.231 1.665c-13.208 2.64-23.664 4.709-38.38 10.251-21.487 8.11-36.705 17.694-46.564 29.324-11.222 13.27-15.171 25.328-16.343 29.895-1.747 6.945-2.392 14.103-1.89 21.333l-0.718 49.825c-0.119 8.205 6.484 14.96 14.764 15.079h0.191c8.159 0 14.835-6.541 14.954-14.674l0.67-51.037c-0.311-5.303 0.047-9.371 1.028-13.223 0.215-0.832 2.417-8.8 10.241-18.051 6.389-7.539 17.897-14.484 34.264-20.667 12.419-4.662 20.865-6.35 33.666-8.895l8.423-1.712c33.977-6.968 51.037-10.465 66.759-16.981 43.189-17.861 67.046-53.607 75.276-68.138 14.883-26.232 17.731-49.135 22.038-83.834 3.805-30.799 2.967-59.171 2.56-72.799-0.407-14.175-1.196-22.618-1.843-29.466-0.766-8.11-1.22-13.010-0.622-23.117 0.766-13.913 2.536-20.168 4.977-28.801 2.13-7.539 4.786-16.934 7.178-33.034 4.737-31.726 3.805-56.77 2.632-88.448-0.574-15.53-1.675-31.203-3.278-46.757 2.177-2.426 4.642-5.232 7.25-8.371 21.487-25.947 37.16-54.32 46.611-84.381 7.106-22.641 9.164-41.477 12.897-75.629 2.249-20.763 2.752-33.439 3.207-44.307 0.526-13.010 0.934-22.427 4.044-40.098 0.43-2.45 0.551-2.782 2.369-9.799 1.89-7.325 5.48-21.262 12.706-49.92l1.555-6.183c10.648-42.334 12.251-48.113 18.64-57.91zM883.708-9.987c2.943-4.138 11.868-16.695 17.491-34.77 2.441-7.848-1.986-16.172-9.882-18.598-1.46-0.452-2.943-0.643-4.403-0.643-6.389 0-12.298 4.091-14.285 10.465-4.235 13.556-10.863 22.879-13.352 26.375-19.453 27.35-33.331 57.863-60.944 118.628-21.535 47.375-36.92 81.29-38.93 120.959-0.359 7.277-1.245 34.628-1.46 66.448-0.047 9.394-0.047 17.528-0.024 23.877-4.809 5.731-8.878 11.772-12.251 18.123-0.407-2.188-0.838-4.352-1.22-6.588-16.941-94.513-20.578-151.686-11.772-185.363 0.096-0.309 0-0.643 0.047-0.952 0.072-0.285 0.264-0.547 0.311-0.856 1.149-8.728 3.613-14.459 10.934-29.919 12.873-27.16 23.138-47.993 26.416-54.581 11.342-23.188 15.864-44.783 19.406-90.636 0.622-8.181-5.527-15.316-13.758-15.958-0.407-0.024-0.79-0.024-1.173-0.024-7.753 0-14.285 5.922-14.883 13.723-3.613 46.424-8.087 62.739-15.625 78.127-4.116 8.301-14.477 29.301-27.445 56.698-7.418 15.673-11.438 24.782-13.304 37.505-9.882 38.552-6.484 97.652 11.389 197.444 1.1 6.16 2.321 12.081 3.541 17.979 2.177 10.512 4.354 20.928 5.671 32.582 2.058 17.814 2.513 36.174 1.388 54.652-0.455 7.706 5.073 14.508 12.777 15.625 7.872 1.047 14.954-3.829 16.726-11.345 3.996-17.004 6.772-34.057 8.231-50.705l0.79-10.393c0.67-9.49 1.077-15.221 3.565-22.76 3.182-9.608 8.638-18.598 16.199-26.732 2.584-2.759 3.996-6.397 3.973-10.203-0.047-6.706-0.072-16.838 0-29.134 0.215-31.203 1.077-58.030 1.411-65.141 1.723-34.080 15.409-64.189 36.13-109.781 27.014-59.48 40.486-89.090 58.311-114.134zM503.608 880.996c-6.317 0-12.179 3.996-14.237 10.274l-3.685 11.011c-2.656 7.753 1.483 16.219 9.308 18.884 7.801 2.64 16.343-1.474 18.999-9.251l3.852-11.463c2.536-7.801-1.771-16.196-9.619-18.741-1.532-0.476-3.086-0.713-4.618-0.713zM528.331 788.175c-6.939 0-13.16 4.828-14.62 11.844-1.675 7.943-3.398 15.625-5.169 23.022-1.915 7.991 3.063 16.006 11.079 17.909 8.063 1.902 16.103-3.044 18.018-11.036 1.819-7.658 3.637-15.601 5.335-23.854 1.699-8.015-3.494-15.91-11.581-17.575-1.028-0.214-2.058-0.309-3.063-0.309zM543.382 693.258c-7.537 0-14.022 5.684-14.835 13.295-0.862 7.991-1.794 15.815-2.824 23.473-1.1 8.134 4.666 15.601 12.849 16.695 8.135 0.975 15.697-4.614 16.797-12.771 1.053-7.92 2.034-16.006 2.919-24.258 0.862-8.157-5.073-15.483-13.304-16.339-0.526-0.072-1.077-0.095-1.603-0.095zM548.144 597.367c-0.168 0-0.335 0-0.479 0-8.255 0.262-14.739 7.112-14.477 15.339 0.168 5.303 0.264 10.702 0.264 16.196l-0.047 7.112c-0.119 8.205 6.484 14.96 14.739 15.079 8.638-0.404 15.050-6.469 15.171-14.65l0.047-7.539c0-5.803-0.096-11.51-0.287-17.148-0.264-8.039-6.891-14.389-14.931-14.389zM535.748 502.26c-1.077 0-2.154 0.095-3.254 0.333-8.063 1.784-13.136 9.703-11.366 17.718 1.675 7.539 3.207 15.174 4.618 22.974 1.46 8.062 9.068 13.532 17.348 12.010 8.135-1.451 13.543-9.156 12.107-17.243-1.483-8.205-3.111-16.244-4.881-24.139-1.532-6.945-7.705-11.654-14.572-11.654zM509.643 409.769c-1.46 0-2.967 0.237-4.45 0.69-7.897 2.45-12.275 10.797-9.81 18.622l7.131 22.855c2.417 7.825 10.768 12.225 18.688 9.846 7.897-2.402 12.323-10.702 9.906-18.55l-7.178-23.022c-2.009-6.374-7.92-10.44-14.285-10.44zM483.203 317.42c-1.124 0-2.249 0.119-3.373 0.381-8.063 1.855-13.064 9.822-11.222 17.837 1.89 8.062 3.877 15.958 5.958 23.782 2.13 7.92 10.265 12.557 18.305 10.535 7.991-2.093 12.73-10.251 10.6-18.193-1.986-7.491-3.924-15.079-5.718-22.832-1.579-6.873-7.753-11.51-14.548-11.51zM469.085 222.526c-0.287 0-0.574 0.024-0.885 0.024-8.255 0.499-14.548 7.539-14.045 15.72 0.502 8.396 1.196 16.577 2.034 24.592 0.862 8.181 8.327 14.127 16.414 13.247 8.231-0.856 14.189-8.181 13.328-16.339-0.79-7.563-1.436-15.316-1.915-23.259-0.479-7.895-7.059-13.985-14.931-13.985zM471.215 126.564c-7.585 0-14.094 5.708-14.859 13.39-0.79 8.015-1.46 16.196-1.962 24.52-0.502 8.181 5.767 15.244 14.022 15.745 8.135 0.309 15.314-5.756 15.84-13.937 0.479-7.92 1.1-15.745 1.866-23.403 0.838-8.157-5.169-15.435-13.4-16.244-0.502-0.047-1.005-0.072-1.507-0.072zM487.606 31.906c-6.699 0-12.825 4.542-14.5 11.297-1.915 7.753-3.756 15.745-5.503 23.973-1.675 8.015 3.494 15.91 11.581 17.575 8.063 1.665 16.007-3.472 17.707-11.51 1.651-7.872 3.422-15.506 5.264-22.902 1.962-7.967-2.919-16.029-10.934-18.004-1.22-0.285-2.417-0.428-3.613-0.428zM512.919-48.924c-6.029 0-11.749 3.662-13.998 9.632l-4.188 11.32c-2.8 7.73 1.245 16.244 9.021 19.026 7.801 2.759 16.343-1.261 19.142-8.99l4.020-10.892c2.919-7.681-1.005-16.244-8.734-19.145-1.723-0.643-3.518-0.952-5.264-0.952z" />
<glyph unicode="&#xe933;" glyph-name="chiro_2" d="M514.662 724.225c53.986 0 98.973 44.987 98.973 98.973v37.789c0 53.986-44.987 98.973-98.973 98.973s-98.973-44.987-98.973-98.973v-37.789c0-53.986 43.188-98.973 98.973-98.973zM444.481 860.988c0 37.789 30.591 68.382 68.382 68.382s68.382-30.591 68.382-68.382v-37.789c0-37.789-30.591-68.382-68.382-68.382s-68.382 30.591-68.382 68.382v37.789zM957.342 328.333c17.995 17.995 28.792 43.188 28.792 70.181 0 53.986-44.987 98.973-98.973 98.973h-39.589c-53.986 0-98.973-44.987-98.973-98.973v-1.799c0-26.992 10.797-50.387 28.792-68.382h-68.382c21.594 17.995 34.19 43.188 34.19 73.78 0 26.992-8.997 48.587-23.393 64.783v102.572c0 46.788-30.591 86.377-73.78 98.973-88.176 25.193-179.951 25.193-268.127 0-43.188-12.596-73.78-52.186-73.78-98.973v-118.767c-68.382-7.198-136.762-12.596-203.345-12.596-35.99 0-64.783-28.792-64.783-66.582 0-17.995 7.198-34.19 19.794-46.788-32.391-10.797-55.785-41.388-55.785-77.379 0-44.987 35.99-80.978 80.978-80.978h55.785v-214.141c0-8.997 7.198-14.396 14.396-14.396 8.997 0 14.396 7.198 14.396 14.396v215.941h214.141v-172.753c0-32.391 26.992-59.384 59.384-59.384s59.384 26.992 59.384 59.384v172.753h28.792v-172.753c0-32.391 26.992-59.384 59.384-59.384s59.384 26.992 59.384 59.384v172.753h212.342v-215.941c0-8.997 7.198-14.396 14.396-14.396 8.997 0 14.396 7.198 14.396 14.396v215.941h55.785c44.987 0 80.978 35.99 80.978 80.978 1.799 39.589-26.992 73.78-66.582 79.179zM779.19 400.312c0 37.789 30.591 68.382 68.382 68.382h39.589c37.789 0 68.382-30.591 68.382-70.181 0-37.789-30.591-68.382-68.382-68.382h-39.589c-37.789 0-68.382 30.591-68.382 70.181v0zM714.408 402.113c0-30.591-21.594-57.585-50.387-64.783 12.596 10.797 21.594 26.992 21.594 44.987s-7.198 34.19-21.594 44.987-32.391 14.396-48.587 10.797l-192.548-48.587-3.599 46.788c46.788 7.198 91.775 14.396 136.762 19.794l50.387 7.198c43.188 5.398 73.78 0 89.976-14.396 12.596-10.797 17.995-25.193 17.995-46.788zM656.824 382.317c0-14.396-10.797-25.193-23.393-26.992l-260.929-25.193c5.398 10.797 14.396 17.995 25.193 19.794l226.738 57.585c1.799 0 3.599 0 7.198 0 5.398 0 10.797-1.799 16.195-5.398s8.997-10.797 8.997-19.794zM336.51 569.466c0 32.391 21.594 61.184 52.186 70.181 82.778 23.393 169.154 23.393 251.932 0 30.591-8.997 52.186-37.789 52.186-70.181v-82.778c-12.596 5.398-26.992 7.198-43.188 8.997v55.785c0 8.997-7.198 14.396-14.396 14.396-8.997 0-14.396-7.198-14.396-14.396v-57.585c-5.398 0-10.797-1.799-16.195-1.799l-50.387-7.198c-46.788-7.198-93.575-14.396-142.162-21.594v88.176c0 8.997-7.198 14.396-14.396 14.396-8.997 0-14.396-7.198-14.396-14.396v-91.775c-14.396-1.799-28.792-3.599-43.188-5.398v115.168zM104.374 409.311c93.575 0 190.748 10.797 286.122 23.393l3.599-50.387-5.398-1.799c-23.393-5.398-39.589-23.393-46.788-43.188h-235.736c-19.794 0-35.99 16.195-35.99 35.99-1.799 19.794 14.396 35.99 34.19 35.99zM469.675-2.778c0-16.195-14.396-30.591-30.591-30.591s-30.591 14.396-30.591 30.591v170.954h61.184v-170.954zM619.033-2.778c0-16.195-14.396-30.591-30.591-30.591s-30.591 14.396-30.591 30.591v170.954h61.184v-170.954zM946.545 198.767h-863.764c-26.992 0-50.387 23.393-50.387 50.387s23.393 50.387 50.387 50.387h863.764c26.992 0 50.387-23.393 50.387-50.387s-23.393-50.387-50.387-50.387z" />
<glyph unicode="&#xe934;" glyph-name="chiro_3" d="M237.553 91.329l7.226-40.699c1.448-8.071-3.941-15.787-12.012-17.211-0.878-0.166-1.757-0.237-2.611-0.237-7.051 0-13.318 5.057-14.576 12.25l-7.786 43.86c-64.044-6.006-127.268-22.431-186.883-49.246-7.454-3.395-16.238 0-19.609 7.454-3.347 7.454-0.024 16.238 7.454 19.609 61.849 27.829 127.403 45.001 193.835 51.492l-56.427 317.878c-27.824 1.71-52.062 22.078-57.118 50.685l-71.030 400.163c-2.896 16.286 0.736 32.69 10.209 46.222 9.448 13.532 23.621 22.577 39.907 25.449 34.423 6.006 66.449-16.404 72.384-49.901l71.054-400.186c2.872-16.262-0.76-32.666-10.209-46.222-6.623-9.448-15.645-16.546-25.996-21.057l56.96-320.839c89.757 4.457 180.343-10.475 264.838-44.856v337.383c-27.135 6.529-47.386 30.838-47.386 59.92v406.382c0 34.091 27.728 61.819 61.819 61.819 34.897 0 62.626-27.728 62.626-61.819v-406.382c0-29.106-20.274-53.392-47.386-59.92v-349.915l2.931-1.239c76.264-32.416 157.99-48.008 239.486-46.84l39.875 348.735c-10.588 3.846-20.037 10.398-27.23 19.443-10.28 12.915-14.909 29.082-13.033 45.486l46.175 403.747c3.893 33.877 34.566 58.258 68.395 54.412 17.235-1.97 31.93-10.113 42.21-23.028 10.28-12.939 14.909-29.082 13.057-45.51l-46.198-403.771c-3.3-28.868-26.209-50.638-53.866-54.056l-39.375-344.27c69.82 4.536 138.956 21.412 203.811 50.589 7.454 3.371 16.286 0.024 19.609-7.43 3.371-7.478 0.047-16.262-7.43-19.633-69.781-31.388-144.271-49.213-219.412-53.447l-4.279-37.413c-0.878-7.573-7.288-13.152-14.719-13.152-0.57 0-1.14 0.024-1.71 0.095-8.142 0.925-13.982 8.286-13.057 16.428l3.782 33.075c-1.716-0.014-3.431-0.021-5.147-0.021-79.532 0-159.086 15.18-233.875 45.627v-25.434c0-8.191-6.623-14.838-14.838-14.838-8.191 0-14.838 6.647-14.838 14.838v37.963l-2.947 1.249c-81.626 34.682-169.502 50.1-256.662 46.324zM544.547 473.236v406.382c0 17.71-14.41 32.144-32.144 32.144-18.541 0-32.951-14.434-32.951-32.144v-406.382c0-17.71 14.41-32.144 32.144-32.144h0.807c17.734 0 32.144 14.434 32.144 32.144zM863.019 418.209l46.175 403.771c0.973 8.523-1.424 16.927-6.789 23.645-5.318 6.742-12.986 10.968-21.509 11.941-1.329 0.142-2.635 0.237-3.965 0.237-16.666 0-30.53-12.108-32.382-28.417l-46.198-403.771c-0.973-8.523 1.424-16.927 6.789-23.645 5.318-6.718 12.962-10.968 21.509-11.941l0.807-0.071c17.639-2.065 33.544 10.683 35.562 28.25zM118.245 492.361c3.086-17.426 19.846-28.963 37.224-26.043 0 0.024 0.831 0.166 0.831 0.166 8.452 1.472 15.811 6.172 20.749 13.223 4.915 7.027 6.789 15.574 5.294 24.025l-71.030 400.163c-2.754 15.55-16.333 26.518-31.621 26.518-1.852 0-3.727-0.166-5.603-0.475-9.258-1.662-16.641-6.339-21.556-13.389-4.938-7.051-6.813-15.574-5.294-24.049l71.007-400.139z" />
<glyph unicode="&#xe935;" glyph-name="dental_1" d="M986.917 495.657h-294.609c-10.398 0-17.33 6.932-17.33 17.33s6.932 17.33 17.33 17.33h294.609c10.398 0 17.33-6.932 17.33-17.33s-8.665-17.33-17.33-17.33zM683.665-36.35h-287.677c-10.398 0-17.33 6.932-17.33 17.33v173.299c0 10.398 6.932 17.33 17.33 17.33s17.33-6.932 17.33-17.33v-155.969h254.749v140.372c0 10.398 6.932 17.33 17.33 17.33s17.33-6.932 17.33-17.33v-157.703c-1.733-10.398-8.665-17.33-19.062-17.33zM678.467 265.169c0 0 0 0 0 0-10.398 0-17.33 8.665-17.33 17.33l5.199 563.201c0 1.733-1.733 6.932-8.665 13.864s-13.864 10.398-17.33 10.398h-154.237c19.062-53.722-8.665-105.712-43.325-136.907-6.932-6.932-17.33-5.199-24.262 1.733l-124.775 133.441c-6.932 6.932-6.932 17.33 0 22.529 22.529 25.995 58.922 41.592 93.582 41.592 29.461 0 57.188-8.665 79.718-27.728h173.299c13.864 0 27.728-6.932 41.592-19.062 6.932-6.932 19.062-20.796 19.062-38.126l-5.199-563.201c0-10.398-6.932-19.062-17.33-19.062zM330.136 878.646l100.513-107.445c17.33 20.796 41.592 60.654 12.13 105.712 0 0 0 1.733-1.733 1.733-15.596 12.13-34.66 19.062-55.456 19.062-19.062 0-39.858-6.932-55.456-19.062zM945.346 69.341c-6.932 0-13.864 1.733-20.796 3.466l-273.813 76.252h-232.221c-20.796 0-39.858 8.665-55.456 22.529l-339.666 339.666c-31.194 31.194-31.194 79.718 0 110.911 13.864 13.864 34.66 22.529 55.456 22.529s39.858-8.665 55.456-22.529l315.404-318.87h211.425c8.665 0 17.33-1.733 24.262-3.466l280.745-77.984c41.592-10.398 65.854-53.722 55.456-95.315-5.199-20.796-19.062-36.392-36.392-46.791-12.13-6.932-25.995-10.398-39.858-10.398zM78.853 610.034c-12.13 0-22.529-5.199-31.194-12.13-17.33-17.33-17.33-45.058 0-60.654l339.666-341.399c8.665-8.665 19.062-12.13 31.194-12.13h235.687c1.733 0 3.466 0 5.199 0l275.545-77.984c10.398-3.466 22.529-1.733 32.926 5.199 10.398 5.199 17.33 15.596 20.796 25.995 6.932 22.529-6.932 46.791-31.194 51.99l-282.478 77.984c-5.199 1.733-10.398 1.733-13.864 1.733h-218.357c-5.199 0-8.665 1.733-12.13 5.199l-322.336 322.336c-6.932 8.665-19.062 13.864-29.461 13.864z" />
<glyph unicode="&#xe936;" glyph-name="dental_2" d="M778.796 231.726c-1.843 0-5.531 0-7.374 1.843-147.491 62.684-237.829 184.364-237.829 313.418 0 33.185 0 64.527 0 97.713s0 64.527 0 97.713c0 7.374 5.531 14.749 12.905 16.593s14.749 0 20.28-5.531c16.593-20.28 55.309-33.185 94.025-33.185 53.466 0 90.339 22.124 101.4 44.247 1.843 9.218 9.218 12.905 16.593 12.905v0c7.374 0 14.749-3.688 16.593-11.062 9.218-22.124 47.935-44.247 101.4-44.247 40.56 0 77.432 12.905 94.025 33.185 5.531 5.531 12.905 7.374 20.28 5.531s12.905-9.218 12.905-16.593c0-33.185 0-64.527 0-97.713s0-66.371 0-97.713c0-130.898-90.339-250.734-237.829-313.418-3.688-1.843-5.531-3.688-7.374-3.688zM570.465 707.384c0-20.28 0-40.56 0-60.84 0-33.185 0-64.527 0-97.713 0-112.462 79.277-219.392 208.33-276.545 129.055 58.996 208.33 164.083 208.33 276.545 0 33.185 0 64.527 0 97.713 0 20.28 0 40.56 0 60.84-23.967-12.905-57.153-20.28-90.339-20.28-49.778 0-92.182 16.593-117.993 42.404-25.811-27.654-70.058-44.247-117.993-44.247-33.185 0-64.527 9.218-90.339 22.124zM773.265 392.122c-5.531 0-11.062 1.843-14.749 5.531l-86.651 103.244c-7.374 7.374-5.531 18.436 1.843 25.811s18.436 5.531 25.811-1.843l71.902-82.963 110.618 169.614c5.531 9.218 16.593 11.062 25.811 5.531s11.062-16.593 5.531-25.811l-123.524-191.738c-3.688-3.688-9.218-7.374-16.593-7.374 1.843 0 1.843 0 0 0zM854.385 698.166c-1.843 0-1.843 0-3.688 0-9.218 1.843-16.593 11.062-14.749 20.28 11.062 70.058 0 125.367-92.182 169.614-68.215 33.185-156.709 0-235.986-29.498-49.778-18.436-95.869-36.873-136.429-36.873-9.218 0-18.436 7.374-18.436 18.436s7.374 18.436 18.436 18.436c33.185 0 77.432 16.593 125.367 35.029 84.808 31.342 182.52 68.215 265.484 27.654 94.025-46.091 127.21-108.774 112.462-208.33-3.688-7.374-12.905-14.749-20.28-14.749zM299.451-41.132c0 0-1.843 0 0 0-164.083 12.905-167.771 261.796-169.614 394.538v22.124c0 22.124-20.28 57.153-38.716 90.339-14.749 25.811-31.342 53.466-38.716 79.277l-5.531 11.062c-35.029 103.244-68.215 200.956-29.498 278.389 22.124 42.404 62.684 71.902 127.21 92.182 68.215 20.28 136.429 7.374 197.269-35.029 11.062-7.374 18.436-16.593 29.498-25.811 25.811-25.811 53.466-51.622 110.618-60.84 9.218-1.843 16.593-11.062 14.749-22.124s-11.062-16.593-22.124-14.749c-66.371 12.905-101.4 44.247-129.055 70.058-9.218 7.374-16.593 16.593-25.811 22.124-35.029 25.811-92.182 51.622-164.083 29.498-53.466-16.593-88.494-40.56-105.087-73.746-31.342-62.684 0-153.022 33.185-248.891l3.688-9.218c7.374-22.124 22.124-47.935 36.873-71.902 20.28-40.56 40.56-77.432 42.404-108.774v-23.967c1.843-119.836 3.688-339.23 125.367-357.665 14.749 18.436 9.218 64.527 3.688 110.618-11.062 84.808-25.811 202.8 90.339 243.36 88.494 31.342 154.866 7.374 195.425-70.058 29.498-57.153 22.124-121.68 14.749-180.676-1.843-11.062-1.843-20.28-3.688-29.498-3.688-40.56 5.531-68.215 16.593-73.746 9.218-3.688 22.124 3.688 36.873 20.28 38.716 42.404 62.684 129.055 71.902 252.579 0 11.062 9.218 18.436 20.28 16.593 11.062 0 18.436-9.218 16.593-20.28-9.218-134.586-36.873-226.767-81.12-274.702-36.873-40.56-66.371-35.029-79.277-29.498-29.498 12.905-44.247 55.309-38.716 110.618 1.843 9.218 1.843 20.28 3.688 31.342 7.374 51.622 14.749 110.618-9.218 158.552-31.342 58.996-81.12 75.589-149.335 51.622-81.12-27.654-77.432-101.4-64.527-202.8 7.374-62.684 14.749-119.836-22.124-149.335-7.374 0-11.062-1.843-14.749-1.843z" />
<glyph unicode="&#xe937;" glyph-name="dental_3" d="M1004.384-50.885c-3.72 0-7.44 1.86-11.16 3.72-107.878 87.419-76.259 213.897-44.639 336.656 9.299 33.479 16.74 68.819 24.18 104.159 24.18 141.359 5.58 238.077-57.659 286.436-81.839 65.099-243.657 48.36-453.833-42.78-9.299-3.72-20.459 0-24.18 9.299s0 20.459 9.299 24.18c158.098 68.819 371.995 132.058 491.033 39.059 74.399-57.659 98.579-165.537 70.679-321.775-5.58-37.2-14.879-72.539-24.18-107.878-29.76-120.898-55.799-225.057 33.479-297.596 7.44-5.58 9.299-18.6 1.86-26.039-3.72-5.58-9.299-7.44-14.879-7.44zM453.833 267.17c-79.979 0-145.078 65.099-145.078 145.078s65.099 145.078 145.078 145.078 145.078-65.099 145.078-145.078c0-79.979-65.099-145.078-145.078-145.078zM453.833 520.128c-59.519 0-107.878-48.36-107.878-107.878s48.36-107.878 107.878-107.878 107.878 48.36 107.878 107.878-48.36 107.878-107.878 107.878zM453.833-41.585c-249.237 0-453.833 202.737-453.833 453.833 0 91.139 26.039 176.697 76.259 251.097 3.72 5.58 9.299 7.44 14.879 7.44h723.53c5.58 0 11.16-3.72 14.879-7.44 50.219-74.399 76.259-161.818 76.259-251.097 1.86-251.097-202.737-453.833-451.974-453.833zM102.297 635.446c-42.78-66.959-65.099-143.218-65.099-223.197 0-228.776 185.998-416.634 416.634-416.634s416.634 185.998 416.634 416.634c0 79.979-22.32 156.238-65.099 223.197h-703.070zM96.717 642.885c-5.58 0-11.16 1.86-13.020 5.58-5.58 5.58-5.58 13.020-3.72 18.6 52.079 130.198 161.818 228.776 297.596 264.116v0c132.058 37.2 277.136 7.44 386.875-79.979 5.58-3.72 7.44-11.16 7.44-18.6-1.86-7.44-7.44-13.020-13.020-14.879l-658.431-174.838c-1.86 0-3.72 0-3.72 0zM491.032 910.722c-35.34 0-70.679-3.72-106.019-14.879v0c-111.599-29.76-204.598-104.159-256.677-206.457l582.172 156.238c-66.959 42.78-141.359 65.099-219.477 65.099zM379.433 914.441v0 0zM453.833 350.87c-33.479 0-61.379 27.899-61.379 61.379s27.899 61.379 61.379 61.379c33.479 0 61.379-27.899 61.379-61.379s-27.899-61.379-61.379-61.379zM453.833 434.568c-13.020 0-24.18-11.16-24.18-24.18s11.16-24.18 24.18-24.18c13.020 0 24.18 11.16 24.18 24.18s-11.16 24.18-24.18 24.18zM453.833 183.472c-126.478 0-228.776 102.298-228.776 228.776s102.298 228.776 228.776 228.776c126.478 0 228.776-102.298 228.776-228.776s-102.298-228.776-228.776-228.776zM453.833 603.826c-106.019 0-191.578-85.559-191.578-191.578s85.559-191.578 191.578-191.578c106.019 0 191.578 85.559 191.578 191.578s-85.559 191.578-191.578 191.578z" />
<glyph unicode="&#xe938;" glyph-name="opto_1" d="M257.245 104.017c-112.855 0-204.136 91.28-204.136 204.136s91.28 204.136 204.136 204.136 204.136-91.28 204.136-204.136-91.28-204.136-204.136-204.136zM257.245 479.096c-94.599 0-170.943-76.343-170.943-170.943s76.343-170.943 170.943-170.943 170.943 76.343 170.943 170.943c0 94.599-76.343 170.943-170.943 170.943zM245.627 170.402c-9.958 0-16.596 6.638-16.596 16.596s6.638 16.596 16.596 16.596c64.726 0 116.175 51.449 116.175 116.175 0 9.958 6.638 16.596 16.596 16.596s16.596-6.638 16.596-16.596c0-82.982-66.386-149.368-149.368-149.368zM755.138 170.402c-9.958 0-16.596 6.638-16.596 16.596s6.638 16.596 16.596 16.596c64.726 0 116.175 51.449 116.175 116.175 0 9.958 6.638 16.596 16.596 16.596s16.596-6.638 16.596-16.596c0-82.982-66.386-149.368-149.368-149.368zM91.28 391.135h-91.28l9.958 23.235c4.979 11.618 122.813 285.458 156.006 335.248 19.916 29.874 61.407 46.47 99.579 41.491s68.045-29.874 81.323-68.045c3.319-8.298-1.66-18.256-9.958-21.575s-18.256 1.66-21.575 9.958c-11.618 34.852-38.172 43.15-53.109 46.47-26.555 3.319-54.768-8.298-68.045-26.555-26.555-39.831-114.516-238.989-144.389-307.034h41.491c9.958 0 16.596-6.638 16.596-16.596s-8.298-16.596-16.596-16.596zM766.755 104.017c-112.855 0-204.136 91.28-204.136 204.136s91.28 204.136 204.136 204.136 204.136-91.28 204.136-204.136-91.28-204.136-204.136-204.136zM766.755 479.096c-94.599 0-170.943-76.343-170.943-170.943s76.343-170.943 170.943-170.943 170.943 76.343 170.943 170.943c0 94.599-76.343 170.943-170.943 170.943zM615.728 404.412c-3.319 0-6.638 1.66-8.298 3.319l-78.003 49.789h-34.852l-78.003-49.789c-8.298-4.979-18.256-3.319-23.235 4.979s-3.319 18.256 4.979 23.235l86.301 54.768h53.109l86.301-54.768c8.298-4.979 9.958-14.937 4.979-23.235-1.66-4.979-6.638-8.298-13.277-8.298zM1023.999 391.135h-91.28c-9.958 0-16.596 6.638-16.596 16.596s6.638 16.596 16.596 16.596h41.491c-44.811 102.898-119.494 272.182-142.729 305.374-13.277 19.916-41.491 31.533-68.045 26.555-14.937-1.66-43.15-9.958-54.768-44.811-3.319-8.298-13.277-13.277-21.575-9.958s-13.277 11.618-9.958 21.575c13.277 38.172 43.15 61.407 81.323 68.045 39.831 4.979 79.663-11.618 99.579-41.491 33.193-49.789 151.028-323.63 156.006-335.248l9.958-23.235z" />
<glyph unicode="&#xe939;" glyph-name="opto_2" d="M727.208 419.776c-82.908 0-146.412 61.74-146.412 141.12 0 61.74 35.28 107.604 68.796 153.468 26.46 37.044 52.92 70.56 59.976 112.896 1.764 8.82 8.82 14.112 17.64 14.112s15.876-5.292 17.64-14.112c8.82-40.572 33.516-75.852 59.976-112.896 33.516-45.864 68.796-91.728 68.796-153.468 0-79.38-65.268-141.12-146.412-141.12zM727.208 770.812c-14.112-28.224-31.752-52.92-49.392-75.852-31.752-42.336-61.74-82.908-61.74-132.3 0-59.976 49.392-105.84 111.131-105.84s111.131 47.628 111.131 105.84c0 49.392-29.988 89.964-61.74 132.3-17.64 22.932-37.044 47.628-49.392 75.852zM727.208 483.28c-45.864 0-82.908 37.044-82.908 82.908 0 10.584 7.056 17.64 17.64 17.64s17.64-7.056 17.64-17.64c0-26.46 21.168-47.628 47.628-47.628 10.584 0 17.64-7.056 17.64-17.64s-8.82-17.64-17.64-17.64zM512 204.568c-33.516 0-65.268 12.348-88.2 37.044-22.932 22.932-37.044 54.684-37.044 88.2 0 26.46 8.82 52.92 24.696 75.852l28.224-21.168c-12.348-15.876-17.64-33.516-17.64-54.684 0-24.696 8.82-45.864 26.46-63.504s38.808-26.46 63.504-26.46c0 0 0 0 0 0 49.392 0 89.964 40.572 89.964 89.964s-40.572 89.964-89.964 89.964c-12.348 0-24.696-1.764-35.28-7.056l-14.112 31.752c15.876 7.056 33.516 10.584 49.392 10.584 68.796 0 125.244-56.448 125.244-125.244s-56.448-125.244-125.244-125.244c0 0 0 0 0 0zM512 54.629c-151.703 0-275.184 123.48-275.184 275.184s123.48 275.184 275.184 275.184c10.584 0 17.64-7.056 17.64-17.64s-7.056-17.64-17.64-17.64c-132.3 0-239.904-107.604-239.904-239.904s107.604-239.904 239.904-239.904 239.904 107.604 239.904 239.904c0 14.112-1.764 29.988-3.528 44.1-1.764 8.82 5.292 19.404 14.112 21.168s19.404-5.292 21.168-14.112c3.528-15.876 5.292-33.516 5.292-51.156-1.764-151.703-125.244-275.184-276.948-275.184zM512 54.629c-278.712 0-497.448 254.016-508.031 264.6-5.292 7.056-5.292 15.876 0 22.932 8.82 10.584 227.555 264.6 508.031 264.6 8.82 0 19.404 0 28.224 0 10.584 0 17.64-8.82 15.876-19.404 0-10.584-8.82-17.64-19.404-15.876-8.82 0-17.64 0-26.46 0-229.319 0-423.359-190.511-469.223-239.904 47.628-51.156 239.904-241.668 470.987-241.668s423.359 190.511 470.987 239.904c-17.64 19.404-56.448 58.212-109.368 98.784-7.056 5.292-8.82 17.64-3.528 24.696s17.64 8.82 24.696 3.528c77.616-59.976 123.48-112.896 125.244-116.424 5.292-7.056 5.292-15.876 0-22.932-10.584-10.584-229.319-262.836-508.031-262.836z" />
<glyph unicode="&#xe93a;" glyph-name="opto_3" d="M287.405 451.806c0 0 0 0 0 0-157.978 0-287.406 108.491-287.406 241.725 0 64.714 30.454 127.524 85.65 173.205s125.621 70.424 201.754 70.424c0 0 0 0 0 0 157.978 0 287.406-108.491 287.406-243.629 0-64.714-30.454-127.524-85.65-173.205-53.293-43.777-125.621-68.52-201.754-68.52zM287.405 899.093c-66.617 0-131.331-20.937-177.011-60.907-45.681-38.067-72.327-89.457-72.327-144.655 0-112.298 112.298-205.562 249.338-205.562 0 0 0 0 0 0 66.617 0 131.331 20.937 177.011 60.907 45.681 38.067 72.327 89.457 72.327 144.655 1.903 114.201-110.394 205.562-249.338 205.562 0 0 0 0 0 0zM287.405 316.669c-157.978 0-287.406 108.491-287.406 243.629v135.137c0 11.42 7.613 19.033 19.033 19.033s19.033-7.613 19.033-19.033v-135.137c0-112.298 112.298-205.562 249.338-205.562 36.163 0 72.327 5.71 104.684 19.033 9.517 3.806 20.937-1.903 24.744-11.42s-1.903-20.937-11.42-24.744c-36.163-13.324-76.134-20.937-118.007-20.937zM736.595 92.074c0 0 0 0 0 0-157.978 0-287.406 108.491-287.406 243.629 0 64.714 30.454 127.524 85.65 173.205 53.293 45.681 125.621 70.424 201.754 70.424 0 0 0 0 0 0 157.978 0 287.406-108.491 287.406-243.629 0-64.714-30.454-127.524-85.65-173.205s-125.621-70.424-201.754-70.424zM736.595 541.264c-66.617 0-131.331-20.937-177.011-60.907-45.681-38.067-72.327-89.457-72.327-144.655 0-112.298 112.298-205.562 249.338-205.562 0 0 0 0 0 0 66.617 0 131.331 20.937 177.011 60.907 45.681 38.067 72.327 89.457 72.327 144.655 0 112.298-112.298 205.562-249.338 205.562 0 0 0 0 0 0zM736.595-41.161c-157.978 0-287.406 108.491-287.406 243.629v135.137c0 11.42 7.613 19.033 19.033 19.033s19.033-7.613 19.033-19.033v-135.137c0-112.298 112.298-205.562 249.338-205.562s249.338 91.361 249.338 205.562v135.137c0 11.42 7.613 19.033 19.033 19.033s19.033-7.613 19.033-19.033v-135.137c0-135.137-129.428-243.629-287.406-243.629zM310.246 653.562v38.067c13.324 0 26.647 11.42 26.647 26.647v20.937c0 13.324-11.42 26.647-26.647 26.647h-47.584v-93.264h-38.067v129.428h85.65c34.26 0 64.714-28.55 64.714-64.714v-22.84c0-32.357-28.55-60.907-64.714-60.907zM374.959 583.137h-38.067v45.681c0 13.324-11.42 26.647-26.647 26.647h-47.584v-70.424h-38.067v108.491h85.65c34.26 0 64.714-28.55 64.714-64.714v-45.681zM803.212 227.211h-131.331v220.789h38.067v-182.721h93.264z" />
<glyph unicode="&#xe93b;" glyph-name="vet_1" d="M973.521 9.014h-923.043c-28.845 0-50.479 23.436-50.479 50.479v625.577c0 28.845 23.436 50.479 50.479 50.479h293.859v79.324c0 39.662 32.45 72.113 72.113 72.113h191.098c39.662 0 72.113-32.45 72.113-72.113v-79.324h293.859c28.845 0 50.479-23.436 50.479-50.479v-625.577c0-27.042-23.436-50.479-50.479-50.479zM50.479 701.296c-9.014 0-14.422-7.211-14.422-14.422v-625.577c0-9.014 7.211-14.422 14.422-14.422h923.043c9.014 0 14.422 7.211 14.422 14.422v623.774c0 9.014-7.211 14.422-14.422 14.422h-923.043zM380.394 739.155h263.211v75.718c0 19.831-16.225 36.056-36.056 36.056h-191.098c-19.831 0-36.056-16.225-36.056-36.056v-75.718zM549.859 164.056h-73.916c-25.239 0-46.874 21.634-46.874 46.874v75.718h-77.521c-25.239 0-46.874 21.634-46.874 46.874v73.916c0 25.239 21.634 46.874 46.874 46.874h77.521v75.718c0 25.239 21.634 46.874 46.874 46.874h73.916c25.239 0 46.874-21.634 46.874-46.874v-75.718h77.521c25.239 0 46.874-21.634 46.874-46.874v-73.916c0-25.239-21.634-46.874-46.874-46.874h-77.521v-75.718c0-25.239-21.634-46.874-46.874-46.874zM349.746 421.859c-5.408 0-10.817-5.408-10.817-10.817v-73.916c0-5.408 5.408-10.817 10.817-10.817h95.549c10.817 0 18.028-7.211 18.028-18.028v-93.746c0-5.408 5.408-10.817 10.817-10.817h73.916c5.408 0 10.817 5.408 10.817 10.817v93.746c0 10.817 7.211 18.028 18.028 18.028h95.549c5.408 0 10.817 5.408 10.817 10.817v73.916c0 5.408-5.408 10.817-10.817 10.817h-95.549c-10.817 0-18.028 7.211-18.028 18.028v93.746c0 5.408-5.408 10.817-10.817 10.817h-73.916c-5.408 0-10.817-5.408-10.817-10.817v-93.746c0-10.817-7.211-18.028-18.028-18.028h-95.549z" />
<glyph unicode="&#xe93c;" glyph-name="vet_2" d="M324.236-64.001c-40.651 0-77.429 15.486-106.465 40.651v0l-5.807 5.807c-13.551 11.614-23.229 27.1-30.971 46.458-5.807 13.551-9.678 29.036-13.551 42.586-3.871 11.614-3.871 19.358-5.807 29.036-1.936 0-7.743 0-13.551 0-17.422 0-36.778 3.871-54.2 11.614-15.486 7.743-30.971 19.358-46.458 32.907l-5.807 5.807c-11.614 13.551-21.293 29.036-29.036 46.458-7.743 19.358-11.614 40.651-11.614 61.943s3.871 40.651 11.614 61.943c7.743 17.422 17.422 32.907 29.036 46.458v0l5.807 5.807c30.971 30.971 69.687 46.458 112.272 46.458 46.458 0 73.558-7.743 92.915-11.614 32.907-9.678 34.843-9.678 143.244 108.401l3.871 3.871c172.28 174.216 172.28 174.216 160.665 205.187-5.807 15.486-15.486 36.778-19.358 71.622v1.936c0 42.586 17.422 83.236 46.458 112.272 29.036 30.971 69.687 48.393 112.272 48.393s83.236-17.422 112.272-46.458c27.1-27.1 34.843-58.072 42.586-85.172l5.807-13.551c1.936-7.743 3.871-15.486 5.807-17.422 0 0 1.936-1.936 13.551-1.936 17.422-1.936 34.843-5.807 52.265-13.551 11.614-5.807 21.293-11.614 32.907-21.293v0l11.614-11.614c15.486-15.486 27.1-32.907 34.843-52.265s11.614-40.651 11.614-61.943c0-21.293-3.871-40.651-11.614-61.943-5.807-13.551-11.614-25.165-19.358-34.843h1.936l-17.422-15.486c-30.971-30.971-69.687-46.458-112.272-46.458-38.715 0-60.007 7.743-77.429 13.551-29.036 11.614-34.843 13.551-207.123-156.794-110.336-110.336-110.336-110.336-104.529-149.051 3.871-19.358 7.743-44.522 7.743-87.107s-17.422-83.236-46.458-112.272c-29.036-30.971-69.687-48.393-112.272-48.393zM237.128 13.426l1.936-1.936c23.229-23.229 54.2-34.843 85.172-34.843 32.907 0 61.943 13.551 85.172 34.843 23.229 23.229 34.843 54.2 34.843 85.172 0 38.715-3.871 61.943-7.743 79.365-9.678 60.007-1.936 67.751 116.144 183.894 178.087 176.152 193.573 185.83 247.774 166.472 13.551-5.807 30.971-11.614 63.879-11.614 30.971 0 60.007 11.614 83.236 32.907l1.936 1.936c11.614 11.614 19.358 25.165 27.1 38.715 5.807 15.486 9.678 30.971 9.678 46.458s-3.871 30.971-9.678 46.458c-5.807 13.551-13.551 27.1-23.229 36.778l-1.936 1.936c-9.678 9.678-21.293 19.358-34.843 25.165-11.614 5.807-25.165 9.678-38.715 9.678-40.651 1.936-46.458 19.358-54.2 48.393l-3.871 13.551c-7.743 25.165-13.551 48.393-32.907 69.687-25.165 21.293-54.2 34.843-87.107 34.843s-61.943-13.551-85.172-34.843c-23.229-23.229-34.843-52.265-34.843-85.172 3.871-29.036 11.614-46.458 17.422-60.007 23.229-56.136 19.358-58.072-168.409-247.774l-3.871-3.871c-116.144-123.887-125.823-133.565-181.958-118.080-17.422 3.871-40.651 11.614-83.236 11.614-30.971 0-60.007-11.614-83.236-32.907l-1.936-1.936c-11.614-11.614-19.358-25.165-27.1-38.715-5.807-15.486-9.678-30.971-9.678-46.458s3.871-30.971 9.678-46.458c5.807-15.486 15.486-27.1 27.1-38.715l3.871-3.871c9.678-9.678 21.293-17.422 32.907-23.229s25.165-7.743 36.778-7.743c30.971 0 50.329-5.807 54.2-32.907 0-7.743 1.936-15.486 3.871-25.165 3.871-13.551 7.743-25.165 11.614-36.778 3.871-17.422 9.678-27.1 19.358-34.843z" />
<glyph unicode="&#xe93d;" glyph-name="vet_3" d="M864.109-19.086h-704.223c-23.354 0-41.319 17.965-48.505 50.301l-64.673 317.977h-28.744c-10.779 0-17.965 7.186-17.965 17.965s7.186 17.965 17.965 17.965h28.744l66.471 319.774c5.39 30.54 23.354 50.301 46.709 50.301h197.614v84.435c0 41.319 30.54 75.453 68.267 75.453h174.259c37.726 0 68.267-34.133 68.267-75.453v-84.435h197.614c23.354 0 41.319-17.965 48.505-50.301l66.471-319.774h25.151c10.779 0 17.965-7.186 17.965-17.965s-7.186-17.965-17.965-17.965h-28.744l-66.471-319.774c-5.39-30.54-23.354-48.505-46.709-48.505zM82.64 349.193l64.673-312.587c3.593-10.779 8.982-19.762 12.576-19.762h702.426c5.39 0 10.779 8.982 12.576 21.558l64.673 312.587h-856.923zM82.64 385.123h856.923l-64.673 312.587c-1.796 10.779-7.186 21.558-12.576 21.558h-702.426c-5.39 0-10.779-10.779-12.576-21.558l-64.673-312.587zM393.431 756.995h237.137v82.639c0 21.558-14.372 39.523-30.54 39.523h-174.259c-17.965 0-32.337-17.965-32.337-39.523v-82.639zM779.674 92.296c-10.779 0-17.965 7.186-17.965 17.965v156.295c0 10.779 7.186 17.965 17.965 17.965s17.965-7.186 17.965-17.965v-156.295c0-10.779-8.982-17.965-17.965-17.965zM644.939 92.296c-10.779 0-17.965 7.186-17.965 17.965v156.295c0 10.779 7.186 17.965 17.965 17.965s17.965-7.186 17.965-17.965v-156.295c0-10.779-7.186-17.965-17.965-17.965zM511.999 92.296c-10.779 0-17.965 7.186-17.965 17.965v156.295c0 10.779 7.186 17.965 17.965 17.965s17.965-7.186 17.965-17.965v-156.295c0-10.779-7.186-17.965-17.965-17.965zM379.059 92.296c-10.779 0-17.965 7.186-17.965 17.965v156.295c0 10.779 7.186 17.965 17.965 17.965s17.965-7.186 17.965-17.965v-156.295c0-10.779-8.982-17.965-17.965-17.965zM244.323 92.296c-10.779 0-17.965 7.186-17.965 17.965v156.295c0 10.779 7.186 17.965 17.965 17.965s17.965-7.186 17.965-17.965v-156.295c0-10.779-7.186-17.965-17.965-17.965zM779.674 449.796c-10.779 0-17.965 7.186-17.965 17.965v156.295c0 10.779 7.186 17.965 17.965 17.965s17.965-7.186 17.965-17.965v-156.295c0-8.982-8.982-17.965-17.965-17.965zM644.939 449.796c-10.779 0-17.965 7.186-17.965 17.965v156.295c0 10.779 7.186 17.965 17.965 17.965s17.965-7.186 17.965-17.965v-156.295c0-8.982-7.186-17.965-17.965-17.965zM511.999 449.796c-10.779 0-17.965 7.186-17.965 17.965v156.295c0 10.779 7.186 17.965 17.965 17.965s17.965-7.186 17.965-17.965v-156.295c0-8.982-7.186-17.965-17.965-17.965zM379.059 449.796c-10.779 0-17.965 7.186-17.965 17.965v156.295c0 10.779 7.186 17.965 17.965 17.965s17.965-7.186 17.965-17.965v-156.295c0-8.982-8.982-17.965-17.965-17.965zM244.323 449.796c-10.779 0-17.965 7.186-17.965 17.965v156.295c0 10.779 7.186 17.965 17.965 17.965s17.965-7.186 17.965-17.965v-156.295c0-8.982-7.186-17.965-17.965-17.965z" />
<glyph unicode="&#xe93e;" glyph-name="avvo" d="M64 960h896c35.346 0 64-28.654 64-64v-896c0-35.346-28.654-64-64-64h-896c-35.346 0-64 28.654-64 64v896c0 35.346 28.654 64 64 64zM459.423 352.826c21.221 59.051 175.934 225.1 215 243.137 5.239-82.606 10.175-160.537 15.42-243.137-74.882 0.193-230.421 0-230.421 0zM708.587 58.88l233.493 0.691-4.902 50.292c-21.77 223.201-43.017 446.461-64.159 669.722-3.825 40.39-17.739 53.546-57.711 56.952-58.92 5.021-106.892-23.223-153.484-51.786-270.452-165.843-472.661-431.924-579.904-721.647l214.862 0.704 71.757 135.992c50.642-0.020 289.836-0.95 340.465-0.073l-0.416-140.847z" />
<glyph unicode="&#xe93f;" glyph-name="lawyers" d="M56.889 960h910.222c31.419 0 56.889-25.47 56.889-56.889v-910.222c0-31.419-25.47-56.889-56.889-56.889h-910.222c-31.419 0-56.889 25.47-56.889 56.889v910.222c0 31.419 25.47 56.889 56.889 56.889zM927.211 762.267c8.28 0 14.869 25.95 14.869 57.943 0 31.87-6.589 57.869-14.869 57.869h-830.471c-8.181 0-14.82-25.999-14.82-57.869 0-31.993 6.639-57.943 14.82-57.943h51.769c-6.191-2.491-11.115-25.309-11.115-53.947 0-30.316 5.445-54.86 12.134-54.86h73.079v-676.5l590.721 155.33v521.17h65.097c6.763 0 12.084 24.544 12.084 54.86 0 28.639-4.824 51.456-11.040 53.947h47.741zM303.14 58.88c-9.072 0-16.42 8.096-16.42 18.033v537.373c0 9.938 7.348 18.033 16.42 18.033h8.21c9.018 0 16.33-8.096 16.33-18.033v-537.373c0-9.938-7.312-18.033-16.33-18.033h-8.21zM589.792 140.8c-9.048 0-16.352 6.978-16.352 15.487v460.496c0 8.584 7.303 15.537 16.352 15.537h8.221c9.048 0 16.388-6.953 16.388-15.537v-460.496c0-8.509-7.339-15.487-16.388-15.487h-8.221zM712.65 140.8c-9.056 0-16.33 6.922-16.33 15.474v460.518c0 8.552 7.274 15.528 16.33 15.528h8.228c9.056 0 16.402-6.975 16.402-15.528v-460.518c0-8.552-7.346-15.474-16.402-15.474h-8.228zM425.998 99.84c-9.008 0-16.398 7.491-16.398 16.669v499.091c0 9.178 7.39 16.72 16.398 16.72h8.163c9.080 0 16.398-7.542 16.398-16.72v-499.091c0-9.178-7.318-16.669-16.398-16.669h-8.163z" />
<glyph unicode="&#xe940;" glyph-name="martindale" d="M64 960h896c35.346 0 64-28.654 64-64v-896c0-35.346-28.654-64-64-64h-896c-35.346 0-64 28.654-64 64v896c0 35.346 28.654 64 64 64zM296.998 58.88h430.034l215.048 368.61-215.048 368.67h-430.034l-215.078-368.67 215.078-368.61z" />
</font>
</defs>
</svg>
